<?xml version="1.0" encoding="utf-8"?>
<!-- Generator: Adobe Illustrator 26.3.1, SVG Export Plug-In . SVG Version: 6.00 Build 0)  -->
<svg version="1.1" id="Layer_1" xmlns="http://www.w3.org/2000/svg" xmlns:xlink="http://www.w3.org/1999/xlink" x="0px" y="0px"
	 viewBox="0 0 160 44" style="enable-background:new 0 0 160 44;" xml:space="preserve">
<style type="text/css">
	.st0{fill:#F9F9F9;}
	.st1{fill:#C4F26E;}
</style>
<g>
	<path class="st0" d="M62.7,27.3h-3.1l-1.7-4l-3.8-9l-2.7,6.1l-2.9,6.8h-3.1l7.9-18.3h1.6L62.7,27.3L62.7,27.3z"/>
	<g>
		<path class="st0" d="M21,19.6l1.6,3.7l1.7,4h3.1l-3.3-7.6L21,19.6L21,19.6z M22.9,16.8h-3.1"/>
		<polygon class="st0" points="22.9,16.8 14.5,16.8 17.9,8.9 19.5,8.9 		"/>
		<polygon class="st0" points="16.4,19.6 16,20.4 13.1,27.3 10,27.3 13.3,19.6 		"/>
	</g>
	<path class="st0" d="M40.8,21.4V26l-8.5-10.7v11.8h-2.9V8.9h1.4L40.8,21.4L40.8,21.4z M43.7,21.2h-2.9V8.9h2.9V21.2z"/>
	<path class="st0" d="M78.5,14.6c0,0.7-0.1,1.4-0.4,2c-0.2,0.6-0.6,1.2-1,1.7c-0.4,0.5-0.9,0.9-1.5,1.2c-0.6,0.3-1.2,0.5-1.9,0.6
		l4.8,7h-3.4l-4.8-6.9l-3,0v7h-2.9V12.8h2.9v4.6h5.6c0.4,0,0.8-0.1,1.1-0.2s0.6-0.3,0.9-0.6c0.3-0.3,0.5-0.5,0.6-0.9
		c0.1-0.3,0.2-0.7,0.2-1.1c0-0.4-0.1-0.8-0.2-1.1c-0.1-0.4-0.3-0.7-0.6-0.9s-0.6-0.5-0.9-0.6c-0.3-0.2-0.7-0.2-1.1-0.2l-4.2,0V8.9
		h4.2c0.8,0,1.5,0.2,2.2,0.5c0.7,0.3,1.3,0.7,1.8,1.2c0.5,0.5,0.9,1.1,1.2,1.8C78.4,13.1,78.5,13.9,78.5,14.6z"/>
	<path class="st0" d="M80.4,16.8c0.1-1.2,0.5-2.2,1-3.3c0.5-1,1.2-1.9,2.1-2.6c0.8-0.7,1.8-1.3,2.9-1.7c1.1-0.4,2.2-0.6,3.4-0.6
		c1.9,0,3.7,0.5,5.3,1.6l-1.6,2.4c-0.5-0.4-1.1-0.7-1.7-0.8c-0.6-0.2-1.3-0.3-1.9-0.3c-0.8,0-1.6,0.1-2.3,0.4
		c-0.7,0.3-1.4,0.7-1.9,1.1c-0.6,0.5-1.1,1.1-1.4,1.7c-0.4,0.7-0.7,1.4-0.8,2.1L80.4,16.8L80.4,16.8z M89.8,24.6
		c1.4,0,2.6-0.4,3.6-1.1l1.6,2.4c-0.8,0.5-1.6,0.9-2.5,1.2c-0.9,0.3-1.8,0.4-2.8,0.4c-1.2,0-2.3-0.2-3.3-0.6c-1-0.4-2-0.9-2.8-1.6
		c-0.8-0.7-1.5-1.5-2.1-2.5c-0.6-1-0.9-2-1.1-3.1h2.9c0.2,0.7,0.5,1.4,0.9,2c0.4,0.6,0.9,1.1,1.4,1.6c0.6,0.4,1.2,0.8,1.9,1
		C88.3,24.5,89,24.6,89.8,24.6L89.8,24.6z"/>
	<path class="st0" d="M99.5,15.7h-2.9V8.9h2.9V15.7L99.5,15.7z M96.6,18.6h2.9v8.6h-2.9V18.6L96.6,18.6z M108,8.9h2.9v18.4H108v-8.7
		h-5.7v-2.9h5.7C108,15.7,108,8.9,108,8.9z"/>
	<path class="st0" d="M116.7,27.3h-2.9V8.9h2.9V27.3L116.7,27.3z"/>
	<path class="st0" d="M128.6,16.5c0.7,0,1.4,0.1,2.1,0.4s1.2,0.7,1.7,1.1c0.5,0.5,0.9,1.1,1.1,1.7c0.3,0.6,0.4,1.3,0.4,2.1
		c0,0.7-0.1,1.4-0.4,2.1c-0.3,0.6-0.7,1.2-1.1,1.7c-0.5,0.5-1,0.9-1.7,1.2c-0.6,0.3-1.3,0.4-2.1,0.4h-4.4c-0.7,0-1.4-0.1-2.1-0.4
		c-0.6-0.3-1.2-0.7-1.7-1.2c-0.5-0.5-0.9-1.1-1.1-1.7c-0.3-0.6-0.4-1.3-0.4-2.1h2.9c0,0.3,0.1,0.7,0.2,1s0.3,0.6,0.5,0.8
		c0.2,0.2,0.5,0.4,0.8,0.5c0.3,0.1,0.6,0.2,1,0.2h4.4c0.3,0,0.7-0.1,1-0.2c0.3-0.1,0.6-0.3,0.8-0.5c0.2-0.2,0.4-0.5,0.5-0.8
		c0.1-0.3,0.2-0.6,0.2-1s-0.1-0.7-0.2-1c-0.1-0.3-0.3-0.6-0.5-0.8c-0.2-0.2-0.5-0.4-0.8-0.5c-0.3-0.1-0.6-0.2-1-0.2l-4.4,0
		c-0.7,0-1.4-0.1-2.1-0.4c-0.6-0.3-1.2-0.7-1.7-1.1c-0.5-0.5-0.9-1-1.1-1.7c-0.3-0.6-0.4-1.3-0.5-2h2.9c0,0.3,0.1,0.6,0.2,0.9
		c0.1,0.3,0.3,0.5,0.5,0.8c0.2,0.2,0.5,0.4,0.8,0.5c0.3,0.1,0.6,0.2,0.9,0.2L128.6,16.5L128.6,16.5z M123.9,8.7h4.3
		c0.7,0,1.4,0.1,2.1,0.4c0.6,0.3,1.2,0.7,1.7,1.1c0.5,0.5,0.9,1,1.2,1.7c0.3,0.6,0.4,1.3,0.4,2.1h-2.9c0-0.3-0.1-0.7-0.2-1
		c-0.1-0.3-0.3-0.6-0.5-0.8c-0.2-0.2-0.5-0.4-0.8-0.5c-0.3-0.1-0.6-0.2-1-0.2h-4.3V8.7L123.9,8.7z"/>
	<path class="st0" d="M143.6,15.3L143.6,15.3l0,12h-2.9V11.7h-5.7V8.9h8.5V15.3L143.6,15.3z M146.2,8.9h3.1v2.9h-3.1V8.9z"/>
</g>
<g>
	<path class="st1" d="M15.9,31.5c0.2,0.4,0.3,0.9,0.3,1.4c0,0.5-0.1,1-0.3,1.4s-0.5,0.8-0.9,1.1h-4.6v-5.1H15
		C15.4,30.7,15.7,31,15.9,31.5L15.9,31.5z M14.6,34.5c0.2-0.2,0.3-0.5,0.5-0.7c0.1-0.3,0.2-0.6,0.2-0.9c0-0.3-0.1-0.6-0.2-0.9
		c-0.1-0.3-0.3-0.5-0.5-0.7h-3.2v3.2L14.6,34.5L14.6,34.5z"/>
	<path class="st1" d="M25.7,30.4v1h-4.2v1.1h3.9v1h-3.9v1.1h4.2v1h-5.2v-5.1L25.7,30.4L25.7,30.4z"/>
	<path class="st1" d="M33,34.5l1.5-4.2h1l-1.9,5.1h-2.1l-1.9-5.1h1l1.5,4.2H33L33,34.5z"/>
	<path class="st1" d="M44.9,30.4v1h-4.2v1.1h3.9v1h-3.9v1.1h4.2v1h-5.2v-5.1L44.9,30.4L44.9,30.4z"/>
	<path class="st1" d="M50.3,30.4v4.2h3.4v1h-4.4v-5.1L50.3,30.4L50.3,30.4z"/>
	<path class="st1" d="M62.6,30.4c0.4,0.3,0.7,0.7,0.9,1.1c0.2,0.4,0.3,0.9,0.3,1.4s-0.1,1-0.3,1.4c-0.2,0.4-0.5,0.8-0.9,1.1h-3.8
		c-0.4-0.3-0.7-0.7-0.9-1.1c-0.2-0.4-0.3-0.9-0.3-1.4s0.1-1,0.3-1.4c0.2-0.4,0.5-0.8,0.9-1.1H62.6z M62.2,34.5
		c0.2-0.2,0.3-0.5,0.5-0.7c0.1-0.3,0.2-0.6,0.2-0.9c0-0.3-0.1-0.6-0.2-0.9c-0.1-0.3-0.3-0.5-0.5-0.7h-2.9c-0.2,0.2-0.3,0.5-0.5,0.7
		c-0.1,0.3-0.2,0.6-0.2,0.9c0,0.3,0.1,0.6,0.2,0.9c0.1,0.3,0.3,0.5,0.5,0.7H62.2L62.2,34.5z"/>
	<path class="st1" d="M73.7,31.2c0.1,0.3,0.2,0.6,0.2,1c0,0.3-0.1,0.7-0.2,1c-0.1,0.3-0.3,0.6-0.6,0.8h-4.1v1.6h-1v-5.1h5.1
		C73.4,30.6,73.6,30.9,73.7,31.2L73.7,31.2z M69.1,32.9h3.6c0.2-0.2,0.2-0.5,0.2-0.8c0-0.3-0.1-0.6-0.2-0.8h-3.6V32.9L69.1,32.9z"/>
	<path class="st1" d="M81.1,32.5l2-2.1h1v5.1h-1v-3.8l-2,2.1l-2-2.1v3.8h-1v-5.1h1L81.1,32.5z"/>
	<path class="st1" d="M93.7,30.4v1h-4.2v1.1h3.9v1h-3.9v1.1h4.2v1h-5.2v-5.1L93.7,30.4L93.7,30.4z"/>
	<path class="st1" d="M102.9,32.5v-2.1h1v5.1h-1v-1.9L99,31.5v4h-1v-5.1h1L102.9,32.5L102.9,32.5z"/>
	<path class="st1" d="M113.3,30.4v1h-2.1v4.2h-1v-4.2h-2.1v-1H113.3L113.3,30.4z"/>
	<path class="st1" d="M129.2,31.5c0.2,0.4,0.3,0.9,0.3,1.4c0,0.5-0.1,1-0.3,1.4c-0.2,0.4-0.5,0.8-0.9,1.1h-4.6v-5.1h4.6
		C128.7,30.7,129,31,129.2,31.5L129.2,31.5z M127.9,34.5c0.2-0.2,0.3-0.5,0.5-0.7c0.1-0.3,0.2-0.6,0.2-0.9c0-0.3-0.1-0.6-0.2-0.9
		c-0.1-0.3-0.3-0.5-0.5-0.7h-3.2v3.2L127.9,34.5L127.9,34.5z"/>
	<path class="st1" d="M138.4,30.4c0.4,0.3,0.7,0.7,0.9,1.1c0.2,0.4,0.3,0.9,0.3,1.4v2.6h-1v-1.6h-3.8v1.6h-1v-2.6
		c0-0.5,0.1-1,0.3-1.4c0.2-0.4,0.5-0.8,0.9-1.1H138.4L138.4,30.4z M138.6,32.9c0-0.3-0.1-0.6-0.2-0.9c-0.1-0.3-0.3-0.5-0.5-0.7h-2.6
		c-0.2,0.2-0.3,0.5-0.5,0.7c-0.1,0.3-0.2,0.6-0.2,0.9H138.6L138.6,32.9z"/>
	<path class="st1" d="M148.8,30.4c0.4,0.3,0.7,0.7,0.9,1.1c0.2,0.4,0.3,0.9,0.3,1.4s-0.1,1-0.3,1.4c-0.2,0.4-0.5,0.8-0.9,1.1H145
		c-0.4-0.3-0.7-0.7-0.9-1.1c-0.2-0.4-0.3-0.9-0.3-1.4s0.1-1,0.3-1.4c0.2-0.4,0.5-0.8,0.9-1.1H148.8z M148.4,34.5
		c0.2-0.2,0.3-0.5,0.5-0.7c0.1-0.3,0.2-0.6,0.2-0.9c0-0.3-0.1-0.6-0.2-0.9c-0.1-0.3-0.3-0.5-0.5-0.7h-2.9c-0.2,0.2-0.3,0.5-0.5,0.7
		c-0.1,0.3-0.2,0.6-0.2,0.9c0,0.3,0.1,0.6,0.2,0.9c0.1,0.3,0.3,0.5,0.5,0.7H148.4L148.4,34.5z"/>
</g>
</svg>
