<?xml version="1.0" encoding="utf-8"?>
<!-- Generator: Adobe Illustrator 25.4.1, SVG Export Plug-In . SVG Version: 6.00 Build 0)  -->
<svg version="1.1" id="Layer_1" xmlns="http://www.w3.org/2000/svg" xmlns:xlink="http://www.w3.org/1999/xlink" x="0px" y="0px"
	 viewBox="0 0 1754.9 1115.2" style="enable-background:new 0 0 1754.9 1115.2;" xml:space="preserve">
<style type="text/css">
	.st0{fill:#FFFFFF;}
</style>
<g id="Layer_3">
	<path class="st0" d="M0,978.4h52.6l9.6,76.9h4.4l14.7-76.9h40.2l14.6,76.9h4.4l9.6-76.9h52.6l-23,132.3h-69.9l-6.3-50.4h-4.2
		l-6.3,50.4H23L0,978.4z"/>
	<path class="st0" d="M294,1096.4h-50.9l-4.4,14.3h-53.4l46.9-132.3h72.5l46.9,132.3h-53.4L294,1096.4z M282.6,1058.4l-9.6-31.6
		h-8.7l-9.6,31.7L282.6,1058.4z"/>
	<path class="st0" d="M356.4,978.4h51.8v89.1H475v43.2H356.4V978.4z"/>
	<path class="st0" d="M585.1,1110.7l-30.4-42.2h-2.8l-15,16.2v26h-51.6V978.4h51.7v45h3.2l39.4-45h57.2l-52.9,58.9l53.9,73.4H585.1z
		"/>
	<path class="st0" d="M640.2,978.4h124.4v41.1H692v8.8h69.8v32.6H692v8.7h72.6v41.1H640.2V978.4z"/>
	<path class="st0" d="M868,1110.7l-15.5-30.7h-26.6v30.7h-51.8V978.4h80c37.5,0,59.4,15.1,59.4,52.6c0,17.2-7.2,29.4-17.2,37.3
		l22.4,42.4H868z M825.9,1041.7h24.3c7.9,0,11.3-4.1,11.3-10.2s-3.5-10.2-11.3-10.2h-24.3L825.9,1041.7z"/>
	<path class="st0" d="M965.9,978.4h52.6l9.6,76.9h4.4l14.7-76.9h40.2l14.6,76.9h4.4l9.6-76.9h52.6l-23,132.3h-69.9l-6.3-50.4h-4.3
		l-6.3,50.4h-69.9L965.9,978.4z"/>
	<path class="st0" d="M1166.3,1044.6c0-43,29.4-70.6,76.5-70.6s76.4,27.6,76.4,70.6s-29.4,70.6-76.4,70.6
		S1166.3,1087.4,1166.3,1044.6z M1267.9,1044.6c0-17.6-12-26-25-26s-25,8.3-25,26s11.8,26,25,26S1267.9,1062.1,1267.9,1044.6z"/>
	<path class="st0" d="M1420.2,1110.7l-15.4-30.7h-26.6v30.7h-51.8V978.4h80c37.5,0,59.4,15.1,59.4,52.6c0,17.2-7.2,29.4-17.2,37.3
		l22.4,42.4H1420.2z M1378.1,1041.7h24.3c7.9,0,11.3-4.1,11.3-10.2s-3.5-10.2-11.3-10.2h-24.3V1041.7z"/>
	<path class="st0" d="M1478.3,978.4h51.8v89.1h66.8v43.2h-118.6V978.4z"/>
	<path class="st0" d="M1751.4,1044.6c0,38.1-18.4,66.2-74,66.2h-70.2V978.4h70.2C1733,978.4,1751.4,1006.2,1751.4,1044.6z
		 M1699.4,1044.6c0-18.4-10.7-23-21.9-23h-18.4v45.8h18.4C1688.7,1067.4,1699.4,1062.7,1699.4,1044.6L1699.4,1044.6z"/>
</g>
<g id="Layer_1_00000080170382287285370230000013417074167908422038_">
	<path class="st0" d="M1641.2,30.2c-34.7-20.1-72.1-30.2-111-30.2l0,0c-49.5,0-99.5,16.5-148.4,49.1c-26.7,17.8-53.2,40.5-79.3,68
		c-19.3-36.1-47.8-65.7-84.6-86.9C1183.3,10.2,1145.9,0,1107,0c-49.5,0-99.5,16.5-148.4,49.1c-27.8,18.6-55.4,42.5-82.6,71.5
		c-27.2-29-54.8-53-82.7-71.5C744.4,16.5,694.5,0,645,0l0,0c-38.9,0-76.2,10.2-111,30.2c-35.9,20.8-64,49.4-83.2,84.3
		c-25.3-26.3-51-48.2-76.8-65.4C325,16.5,275.1,0,225.6,0l0,0c-38.9,0-76.2,10.2-111,30.2C42.2,72,1.9,146,0.9,238.4
		c-0.9,89.8,34.6,197.8,105.7,321c88.3,152.9,182.5,246,280,276.8c22,7.4,44.9,11.2,68.1,11.2h3.8c23.1-0.1,46.1-3.9,68.1-11.2
		c47.5-15,94.1-44.8,139.7-89c45.6,44.2,92.1,73.9,139.7,89c22,7.4,44.9,11.2,68.1,11.2h3.8c23.1-0.1,46.1-3.9,68.1-11.2
		c48.1-15.2,95.3-45.5,141.6-90.8c46.2,45.2,93.4,75.5,141.6,90.8c21.9,7.3,44.9,11.1,68.1,11.2h3.8c23.2-0.1,46.1-3.9,68.1-11.2
		c97.5-30.8,191.7-123.9,280-276.8c71.1-123.2,106.7-231.2,105.8-321C1753.9,146,1713.6,72,1641.2,30.2z M1183.5,90
		c96.9,55.9,120.2,196.9-17.3,434.9c-26.5,46-52.8,84.8-78.6,117.3c-25.8-32.5-52.1-71.4-78.6-117.3
		C915.5,363,896.3,246,924.2,170.1C989.6,99.3,1051.8,69,1107,69C1134.4,69,1160,76.4,1183.5,90z M645,69c57,0,121.3,32.3,189,107.9
		c24.3,76,3.7,190.8-87.1,348c-27.2,47.1-54.1,86.7-80.5,119.7c-26.4-33-53.4-72.6-80.5-119.7c-137.5-238-114.1-379-17.3-434.9
		C592,76.4,617.6,69,645,69z M505.3,770.6c-15.2,5.2-31.2,7.8-47.3,7.9h-2.7c-16.1,0-32-2.7-47.3-7.9c-73.6-23-156.3-98-241.6-245.7
		C29,286.9,52.3,145.9,149.1,90c23.5-13.6,49.2-21,76.5-21c59.9,0,127.8,35.6,199.3,119.7c-2.9,16.4-4.5,33.1-4.6,49.8
		c-0.9,89.8,34.6,197.8,105.8,321c30.5,52.9,61.7,98.6,93.6,137.1C579.8,735.4,541.5,759.3,505.3,770.6z M924.7,770.6
		c-15.2,5.2-31.2,7.8-47.3,7.9h-2.8c-16.1,0-32.1-2.7-47.3-7.9c-36.2-11.3-74.5-35.2-114.3-74.1c31.9-38.5,63.1-84.2,93.6-137.1
		c30.2-52.3,54-101.8,71.3-148.5c17.3,46.6,41.1,96.1,71.3,148.5c30,51.9,60.6,96.9,91.9,135C1000.6,734.6,961.5,759.1,924.7,770.6z
		 M1589.4,524.9c-85.3,147.7-168,222.7-241.6,245.7c-15.2,5.2-31.2,7.8-47.3,7.9h-2.7c-16.1,0-32.1-2.7-47.3-7.9
		c-36.8-11.5-75.9-36-116.5-76.2c31.3-38.1,61.9-83.1,91.9-135c71.1-123.2,106.7-231.2,105.8-321c-0.1-15.4-1.5-30.8-4-46
		C1400.4,105.7,1469.5,69,1530.2,69c27.3,0,53,7.4,76.5,21C1703.5,145.9,1726.8,286.9,1589.4,524.9z"/>
</g>
</svg>
