<svg width="162" height="35" viewBox="0 0 162 35" fill="none" xmlns="http://www.w3.org/2000/svg">
<path d="M58.698 15.6638V13.7192C58.698 11.6067 56.9862 9.88959 54.8802 9.88959H48.4758V25.3271H51.381V19.4988H53.2548L56.322 25.3271H59.5944L56.376 19.1954C57.7584 18.5942 58.698 17.2075 58.698 15.6638ZM51.381 12.8038H54.8802C55.3824 12.8038 55.7928 13.2154 55.7928 13.7192V15.6638C55.7928 16.1675 55.3824 16.5792 54.8802 16.5792H51.381V12.8038Z" fill="white"/>
<path d="M67.7916 14.2067H65.2104C63.1044 14.2067 61.3926 15.9238 61.3926 18.0363V21.4921C61.3926 23.6046 63.1044 25.3217 65.2104 25.3217H67.7916C69.8976 25.3217 71.6094 23.6046 71.6094 21.4921V18.0417C71.6094 15.9292 69.8976 14.2067 67.7916 14.2067ZM64.2924 18.0417C64.2924 17.5379 64.7028 17.1263 65.205 17.1263H67.7862C68.2884 17.1263 68.6988 17.5379 68.6988 18.0417V21.4975C68.6988 22.0012 68.2884 22.4129 67.7862 22.4129H65.205C64.7028 22.4129 64.2924 22.0012 64.2924 21.4975V18.0417Z" fill="white"/>
<path d="M80.7029 14.2067H78.1218C76.0158 14.2067 74.304 15.9238 74.304 18.0363V21.4921C74.304 23.6046 76.0158 25.3217 78.1218 25.3217H88.29V22.4075H78.1218C77.6196 22.4075 77.2091 21.9958 77.2091 21.4921V18.0417C77.2091 17.5379 77.6196 17.1263 78.1218 17.1263H80.7029C81.2051 17.1263 81.6156 17.5379 81.6156 18.0417V18.4208H84.5208V18.0417C84.5208 15.9292 82.8089 14.2067 80.7029 14.2067Z" fill="white"/>
<path d="M98.1125 14.2067H94.4783L91.3355 17.7708H90.1151V9.88959H87.2153V25.3271H90.1151V20.685H91.2707L94.6727 25.3271H98.2421L93.6791 19.2063L98.1125 14.2067Z" fill="white"/>
<path d="M106.531 14.2067H103.95C101.844 14.2067 100.132 15.9238 100.132 18.0363V21.4921C100.132 23.6046 101.844 25.3217 103.95 25.3217H110.355V22.4075H103.95C103.448 22.4075 103.038 21.9958 103.038 21.4921V21.2213H110.355V18.0417C110.349 15.9292 108.637 14.2067 106.531 14.2067ZM103.945 17.1208H106.526C107.028 17.1208 107.439 17.5325 107.439 18.0363V18.3071H103.027V18.0417C103.032 17.5325 103.443 17.1208 103.945 17.1208Z" fill="white"/>
<path d="M131.063 13.0204C132.381 13.0204 132.948 12.5221 132.948 11.3467C132.948 10.1712 132.386 9.67291 131.063 9.67291C129.746 9.67291 129.179 10.1712 129.179 11.3467C129.179 12.5167 129.746 13.0204 131.063 13.0204Z" fill="white"/>
<path d="M132.516 14.2067L118.741 14.1958V9.88959H115.836V14.1958H113.038V17.11H115.836V21.4921C115.836 23.6046 117.547 25.3217 119.653 25.3217H123.261V22.4075H119.653C119.151 22.4075 118.741 21.9958 118.741 21.4921V17.11L129.611 17.1208V22.4129H125.95V25.3271H136.172V22.4129H132.511V14.2067H132.516Z" fill="white"/>
<path d="M138.866 17.1208H144.671L138.866 22.7596V25.3271H149.089V22.4129H143.278L149.089 16.7742V14.2067H138.866V17.1208Z" fill="white"/>
<path d="M162 21.2213V18.0417C162 15.9292 160.288 14.2121 158.182 14.2121H155.601C153.495 14.2121 151.783 15.9292 151.783 18.0417V21.4975C151.783 23.61 153.495 25.3271 155.601 25.3271H162V22.4129H155.596C155.093 22.4129 154.683 22.0013 154.683 21.4975V21.2267H162V21.2213ZM155.596 17.1208H158.177C158.679 17.1208 159.089 17.5325 159.089 18.0363V18.3071H154.678V18.0417C154.683 17.5325 155.093 17.1208 155.596 17.1208Z" fill="white"/>
<path d="M3.49929 17.5C3.49929 18.0308 3.52089 18.5508 3.56949 19.0708C3.52629 19.0654 3.48309 19.06 3.43989 19.06C3.42909 19.0546 3.41829 19.0546 3.40749 19.0546C0.696689 18.5237 0.0810889 17.3862 0.00548888 16.2433C-0.134911 14.0496 3.44529 11.4225 3.44529 11.4225C3.48849 12.4192 3.69909 13.1287 3.93669 13.6054C3.65049 14.8567 3.49929 16.1567 3.49929 17.5Z" fill="url(#paint0_linear_21_1062)"/>
<path d="M20.8818 0.074585C12.6306 0.074585 5.70784 5.87584 3.94204 13.6217C3.94204 13.6163 3.93664 13.6163 3.93664 13.6108C3.65044 14.8621 3.50464 16.1621 3.50464 17.5054C3.50464 18.0363 3.52624 18.5563 3.57484 19.0763H3.58024C3.90424 19.1088 5.19484 19.1737 5.50264 19.1792C5.59984 19.1792 5.70244 19.1846 5.80504 19.1846C5.74564 18.6321 5.71324 18.0742 5.71324 17.5108C5.71324 9.12042 12.5172 2.29 20.8872 2.29C29.2518 2.29 36.0612 9.12042 36.0612 17.5108C36.0612 25.9013 29.2518 32.7317 20.8872 32.7317C13.8942 32.7317 7.99204 27.965 6.24244 21.5029C6.16144 21.5192 6.07504 21.53 5.99404 21.5463C5.30284 21.6708 4.64404 21.7738 4.05544 21.8388C5.97784 29.3625 12.7926 34.9363 20.8872 34.9363C30.4668 34.9363 38.259 27.12 38.259 17.5108C38.259 7.90167 30.4614 0.074585 20.8818 0.074585Z" fill="url(#paint1_linear_21_1062)"/>
<path d="M20.8818 3.23248C13.0248 3.23248 6.66357 9.61873 6.66357 17.4946C6.66357 18.0633 6.69597 18.6266 6.76077 19.1737C8.25117 19.1737 10.0602 19.1358 12.0906 19.1358V20.1758C10.584 20.555 8.82897 20.9775 7.17657 21.3025C8.83437 27.3366 14.337 31.7566 20.8818 31.7566C28.728 31.7621 35.1 25.3758 35.1 17.5C35.1 9.61873 28.728 3.23248 20.8818 3.23248ZM21.7296 22.05C20.6766 22.5591 16.1244 23.6533 15.8436 23.7183C16.092 23.5125 19.683 20.6362 19.116 19.2008C21.2598 18.5779 23.0526 17.9496 24.4998 17.3483L24.5214 17.3429C23.2794 19.1737 22.7988 21.5246 21.7296 22.05ZM13.4352 19.8346V18.735L16.2432 17.045C16.848 16.6171 18.4518 14.0225 18.4518 14.0225C18.2304 12.4408 13.3542 11.7421 13.3542 11.7421C13.3542 11.7421 18.1062 10.3391 19.305 10.2525C20.4984 10.1766 22.0806 11.9804 24.0624 12.9446C31.401 11.7312 32.3514 13.1721 32.3514 13.1721L13.4352 19.8346Z" fill="url(#paint2_linear_21_1062)"/>
<defs>
<linearGradient id="paint0_linear_21_1062" x1="0.282347" y1="13.0636" x2="5.81983" y2="17.9215" gradientUnits="userSpaceOnUse">
<stop stop-color="#9E2597"/>
<stop offset="1" stop-color="#197AE0"/>
</linearGradient>
<linearGradient id="paint1_linear_21_1062" x1="3.98837" y1="23.2799" x2="41.0052" y2="10.6928" gradientUnits="userSpaceOnUse">
<stop stop-color="#9E2597"/>
<stop offset="1" stop-color="#197AE0"/>
</linearGradient>
<linearGradient id="paint2_linear_21_1062" x1="3.98728" y1="23.2769" x2="41.0042" y2="10.6899" gradientUnits="userSpaceOnUse">
<stop stop-color="#9E2597"/>
<stop offset="1" stop-color="#197AE0"/>
</linearGradient>
</defs>
</svg>
