<?xml version="1.0" encoding="UTF-8" standalone="no"?>
<!DOCTYPE svg PUBLIC "-//W3C//DTD SVG 1.1//EN" "http://www.w3.org/Graphics/SVG/1.1/DTD/svg11.dtd">
<svg width="720.00" height="720.00" viewBox="0.00 0.00 3000.00 3000.00" xmlns="http://www.w3.org/2000/svg" xmlns:xlink="http://www.w3.org/1999/xlink">
<g stroke-linecap="round" id="Layer_8">
<path d="M1382.09,2487.85 L445.91,2487.85 L445.91,2285.19" fill="none" stroke="rgb(0, 0, 0)" stroke-width="10.00" stroke-opacity="1.00" stroke-linejoin="miter"/>
<path d="M445.91,2170.29 L445.91,931.00" fill="none" stroke="rgb(0, 0, 0)" stroke-width="10.00" stroke-opacity="1.00" stroke-linejoin="miter"/>
<path d="M445.91,821.22 L445.91,513.56 L2527.83,513.56 L2527.83,819.64" fill="none" stroke="rgb(0, 0, 0)" stroke-width="10.00" stroke-opacity="1.00" stroke-linejoin="miter"/>
<path d="M2527.83,932.88 L2527.83,2174.69" fill="none" stroke="rgb(0, 0, 0)" stroke-width="10.00" stroke-opacity="1.00" stroke-linejoin="miter"/>
<path d="M2527.83,2283.93 L2527.83,2487.85 L1603.05,2487.85" fill="none" stroke="rgb(0, 0, 0)" stroke-width="10.00" stroke-opacity="1.00" stroke-linejoin="miter"/>
<path d="M452.06,679.62 L941.02,679.62 L941.02,821.08 L452.06,821.08 L452.06,679.62 Z" fill="none" stroke="rgb(0, 0, 0)" stroke-width="10.00" stroke-opacity="1.00" stroke-linejoin="miter"/>
<path d="M2370.99,587.37 L2527.83,587.37 L2527.83,821.08 L2370.99,821.08 L2370.99,587.37 Z" fill="none" stroke="rgb(0, 0, 0)" stroke-width="10.00" stroke-opacity="1.00" stroke-linejoin="miter"/>
<path d="M2331.01,931.79 L2524.75,931.79 L2524.75,1380.77 L2331.01,1380.77 L2331.01,931.79 Z" fill="none" stroke="rgb(0, 0, 0)" stroke-width="10.00" stroke-opacity="1.00" stroke-linejoin="miter"/>
<path d="M2324.86,1826.68 L2524.75,1826.68 L2524.75,2174.18 L2324.86,2174.18 L2324.86,1826.68 Z" fill="none" stroke="rgb(0, 0, 0)" stroke-width="10.00" stroke-opacity="1.00" stroke-linejoin="miter"/>
<path d="M2343.31,2284.88 L2521.68,2284.88 L2521.68,2417.12 L2343.31,2417.12 L2343.31,2284.88 Z" fill="none" stroke="rgb(0, 0, 0)" stroke-width="10.00" stroke-opacity="1.00" stroke-linejoin="miter"/>
<path d="M448.98,2284.88 L636.57,2284.88 L636.57,2398.67 L448.98,2398.67 L448.98,2284.88 Z" fill="none" stroke="rgb(0, 0, 0)" stroke-width="10.00" stroke-opacity="1.00" stroke-linejoin="miter"/>
<path d="M448.98,2038.87 L648.87,2038.87 L648.87,2174.18 L448.98,2174.18 L448.98,2038.87 Z" fill="none" stroke="rgb(0, 0, 0)" stroke-width="10.00" stroke-opacity="1.00" stroke-linejoin="miter"/>
<path d="M1385.39,2595.48 L968.69,2595.48 L968.69,2164.95 L2005.04,2164.95 L2005.04,2595.48 L1601.32,2595.48" fill="none" stroke="rgb(0, 0, 0)" stroke-width="10.00" stroke-opacity="1.00" stroke-linejoin="miter"/>
<path d="M1385.41,2595.48 L1383.85,2595.48 L1383.85,2389.44 L1602.19,2389.44 L1602.19,2595.48 L1601.09,2595.48" fill="none" stroke="rgb(0, 0, 0)" stroke-width="10.00" stroke-opacity="1.00" stroke-linejoin="miter"/>
<path d="M1594.46,409.00 L2011.19,409.00 L2011.19,851.83 L971.77,851.83 L971.77,409.00 L1384.99,409.00 L1388.10,411.61" fill="none" stroke="rgb(0, 0, 0)" stroke-width="10.00" stroke-opacity="1.00" stroke-linejoin="miter"/>
<path d="M1594.43,412.08 L1596.04,412.08 L1596.04,682.70 L1383.85,682.70 L1383.85,412.08 L1385.91,412.08 L1387.61,413.50" fill="none" stroke="rgb(0, 0, 0)" stroke-width="10.00" stroke-opacity="1.00" stroke-linejoin="miter"/>
<path d="M445.91,928.71 L648.87,928.71 L648.87,1128.60 L445.91,1128.60 L445.91,928.71 Z" fill="none" stroke="rgb(0, 0, 0)" stroke-width="10.00" stroke-opacity="1.00" stroke-linejoin="miter"/>
<path d="M504.20,2024.01 L554.62,2024.01 L554.62,2103.25 L504.20,2103.25 L504.20,2024.01 Z" fill="none" stroke="rgb(0, 0, 0)" stroke-width="100.00" stroke-opacity="1.00" stroke-linejoin="miter"/>
<path d="M500.60,1818.73 L957.99,1818.73 L957.99,2103.25 L500.60,2103.25 L500.60,1818.73 Z" fill="none" stroke="rgb(0, 0, 0)" stroke-width="100.00" stroke-opacity="1.00" stroke-linejoin="miter"/>
<path d="M492.05,1701.75 L2470.98,1701.75 L2470.98,2120.74 L492.05,2120.74 L492.05,1701.75 Z" fill="none" stroke="rgb(0, 0, 0)" stroke-width="100.00" stroke-opacity="1.00" stroke-linejoin="miter"/>
<path d="M2223.88,986.24 L2475.27,986.24 L2475.27,1886.54 L2223.88,1886.54 L2223.88,986.24 Z" fill="none" stroke="rgb(0, 0, 0)" stroke-width="100.00" stroke-opacity="1.00" stroke-linejoin="miter"/>
<path d="M2492.46,945.42 C2492.46,945.42 2507.51,945.42 2507.51,945.42 C2456.50,944.84 2445.43,943.37 2444.67,943.27 C2459.38,943.30 2487.16,943.00 2496.72,942.08 C2498.38,941.95 2499.03,941.65 2499.83,940.76 C2493.54,939.25 2478.30,939.59 2470.53,939.79 C2461.63,940.14 2448.49,940.65 2444.24,940.81 C2492.20,935.86 2506.16,937.64 2507.59,937.90 C2504.06,938.76 2497.00,938.77 2495.36,938.79 C2477.35,938.86 2451.44,938.95 2443.53,938.97 C2443.53,938.97 2503.28,938.31 2503.28,938.31 C2499.00,937.24 2442.60,932.55 2442.07,932.53 C2441.68,932.51 2440.98,932.51 2439.98,932.53 C2461.58,936.57 2473.54,938.54 2478.21,939.59 C2490.61,941.16 2514.95,941.14 2520.40,941.12 C2513.95,943.06 2496.69,948.11 2493.48,948.92 C2486.34,950.74 2473.82,957.30 2464.59,963.01 C2457.18,967.78 2447.48,974.02 2445.19,975.50" fill="none" stroke="rgb(0, 0, 0)" stroke-width="20.00" stroke-opacity="1.00" stroke-linejoin="round"/>
<path d="M2492.46,981.95 C2494.54,982.25 2497.56,979.62 2500.47,975.63 C2502.47,972.82 2504.66,968.10 2505.85,964.43 C2507.01,960.79 2509.12,952.60 2509.42,948.63 C2509.64,945.72 2509.85,944.91 2510.72,943.58 C2511.34,942.70 2512.30,941.35 2513.06,940.19 C2513.06,940.19 2505.83,951.40 2505.83,951.40 C2505.83,951.40 2515.53,939.63 2515.53,939.63 C2514.57,940.03 2511.77,941.12 2511.19,941.64 C2510.10,942.65 2508.60,946.16 2508.26,948.33 C2507.87,951.06 2507.56,958.99 2507.51,960.46" fill="none" stroke="rgb(0, 0, 0)" stroke-width="20.00" stroke-opacity="1.00" stroke-linejoin="round"/>
<path d="M2509.65,943.27 C2509.94,943.90 2509.47,944.62 2507.51,946.49 C2507.14,946.84 2505.66,948.08 2505.36,948.43 C2505.11,948.71 2501.27,954.48 2500.30,956.66 C2499.75,957.89 2499.03,959.51 2498.89,959.79" fill="none" stroke="rgb(0, 0, 0)" stroke-width="20.00" stroke-opacity="1.00" stroke-linejoin="round"/>
<path d="M1296.77,2280.64 L1330.64,2280.64 L1330.64,2487.09 L1296.77,2487.09 L1296.77,2280.64 Z" fill="none" stroke="rgb(0, 0, 0)" stroke-width="100.00" stroke-opacity="1.00" stroke-linejoin="miter"/>
<path d="M1309.67,2272.57 L1687.09,2272.57 L1687.09,2337.09 L1309.67,2337.09 L1309.67,2272.57 Z" fill="none" stroke="rgb(0, 0, 0)" stroke-width="100.00" stroke-opacity="1.00" stroke-linejoin="miter"/>
<path d="M1646.77,2343.54 L1685.48,2343.54 L1685.48,2545.15 L1646.77,2545.15 L1646.77,2343.54 Z" fill="none" stroke="rgb(0, 0, 0)" stroke-width="100.00" stroke-opacity="1.00" stroke-linejoin="miter"/>
<path d="M1922.57,2308.06 L1951.61,2308.06 L1951.61,2541.93 L1922.57,2541.93 L1922.57,2308.06 Z" fill="none" stroke="rgb(0, 0, 0)" stroke-width="100.00" stroke-opacity="1.00" stroke-linejoin="miter"/>
<path d="M1727.41,2435.47 L1874.19,2435.47 L1874.19,2543.54 L1727.41,2543.54 L1727.41,2435.47 Z" fill="none" stroke="rgb(0, 0, 0)" stroke-width="100.00" stroke-opacity="1.00" stroke-linejoin="miter"/>
<path d="M1998.38,2332.25 L2479.02,2332.25 L2479.02,2437.09 L1998.38,2437.09 L1998.38,2332.25 Z" fill="none" stroke="rgb(0, 0, 0)" stroke-width="100.00" stroke-opacity="1.00" stroke-linejoin="miter"/>
<path d="M491.93,2335.47 L1008.06,2335.47 L1008.06,2433.86 L491.93,2433.86 L491.93,2335.47 Z" fill="none" stroke="rgb(0, 0, 0)" stroke-width="100.00" stroke-opacity="1.00" stroke-linejoin="miter"/>
<path d="M495.16,2416.12 L1017.74,2416.12 L1017.74,2437.09 L495.16,2437.09 L495.16,2416.12 Z" fill="none" stroke="rgb(0, 0, 0)" stroke-width="100.00" stroke-opacity="1.00" stroke-linejoin="miter"/>
<path d="M493.55,975.80 L640.32,975.80 L640.32,1661.28 L493.55,1661.28 L493.55,975.80 Z" fill="none" stroke="rgb(0, 0, 0)" stroke-width="100.00" stroke-opacity="1.00" stroke-linejoin="miter"/>
<path d="M500.00,561.29 L2475.80,561.29 L2475.80,772.58 L500.00,772.58 L500.00,561.29 Z" fill="none" stroke="rgb(0, 0, 0)" stroke-width="100.00" stroke-opacity="1.00" stroke-linejoin="miter"/>
<path d="M496.77,562.90 L525.80,562.90 L525.80,720.96 L496.77,720.96 L496.77,562.90 Z" fill="none" stroke="rgb(0, 0, 0)" stroke-width="100.00" stroke-opacity="1.00" stroke-linejoin="miter"/>
<path d="M1029.03,461.29 L1332.25,461.29 L1332.25,656.45 L1029.03,656.45 L1029.03,461.29 Z" fill="none" stroke="rgb(0, 0, 0)" stroke-width="100.00" stroke-opacity="1.00" stroke-linejoin="miter"/>
<path d="M1022.58,461.29 L1029.03,461.29 L1029.03,629.03 L1022.58,629.03 L1022.58,461.29 Z" fill="none" stroke="rgb(0, 0, 0)" stroke-width="100.00" stroke-opacity="1.00" stroke-linejoin="miter"/>
<path d="M1645.15,461.29 L1653.22,461.29 L1653.22,690.32 L1645.15,690.32 L1645.15,461.29 Z" fill="none" stroke="rgb(0, 0, 0)" stroke-width="100.00" stroke-opacity="1.00" stroke-linejoin="miter"/>
<path d="M1945.15,459.68 L1959.67,459.68 L1959.67,640.32 L1945.15,640.32 L1945.15,459.68 Z" fill="none" stroke="rgb(0, 0, 0)" stroke-width="100.00" stroke-opacity="1.00" stroke-linejoin="miter"/>
<path d="M1711.28,461.29 L1916.12,461.29 L1916.12,561.29 L1711.28,561.29 L1711.28,461.29 Z" fill="none" stroke="rgb(0, 0, 0)" stroke-width="100.00" stroke-opacity="1.00" stroke-linejoin="miter"/>
<path d="M1361.28,617.74 L1624.19,617.74 L1624.19,748.38 L1361.28,748.38 L1361.28,617.74 Z" fill="none" stroke="rgb(0, 0, 0)" stroke-width="100.00" stroke-opacity="1.00" stroke-linejoin="miter"/>
<path d="M1472.57,654.84 L1580.64,654.84 L1580.64,700.00 L1472.57,700.00 L1472.57,654.84 Z" fill="none" stroke="rgb(0, 0, 0)" stroke-width="100.00" stroke-opacity="1.00" stroke-linejoin="miter"/>
<path d="M1249.70,680.67 L1678.28,680.67 L1678.28,1703.49 L1249.70,1703.49 L1249.70,680.67 Z" fill="none" stroke="rgb(0, 0, 0)" stroke-width="100.00" stroke-opacity="1.00" stroke-linejoin="miter"/>
<path d="M1235.30,1058.83 L1253.30,1058.83 L1253.30,1087.64 L1235.30,1087.64 L1235.30,1058.83 Z" fill="none" stroke="rgb(0, 0, 0)" stroke-width="1000.00" stroke-opacity="1.00" stroke-linejoin="miter"/>
<path d="M1717.89,1152.46 L1746.70,1152.46 L1746.70,1166.87 L1717.89,1166.87 L1717.89,1152.46 Z" fill="none" stroke="rgb(0, 0, 0)" stroke-width="1000.00" stroke-opacity="1.00" stroke-linejoin="miter"/>
<path d="M1112.85,1750.30 L1804.33,1750.30 L1804.33,1833.14 L1112.85,1833.14 L1112.85,1750.30 Z" fill="none" stroke="rgb(0, 0, 0)" stroke-width="1000.00" stroke-opacity="1.00" stroke-linejoin="miter"/>
<path d="M1037.22,1454.99 L1109.25,1454.99 L1109.25,1588.24 L1037.22,1588.24 L1037.22,1454.99 Z" fill="none" stroke="rgb(0, 0, 0)" stroke-width="1000.00" stroke-opacity="1.00" stroke-linejoin="miter"/>
<path d="M1894.36,1476.59 L1959.19,1476.59 L1959.19,1483.80 L1894.36,1483.80 L1894.36,1476.59 Z" fill="none" stroke="rgb(0, 0, 0)" stroke-width="1000.00" stroke-opacity="1.00" stroke-linejoin="miter"/>
<path d="M1020.45,2467.20 L1028.44,2467.20 L1028.44,2547.13 L1020.45,2547.13 L1020.45,2467.20 Z" fill="none" stroke="rgb(0, 0, 0)" stroke-width="100.00" stroke-opacity="1.00" stroke-linejoin="miter"/>
<path d="M1254.91,2469.86 L1329.52,2469.86 L1329.52,2547.13 L1254.91,2547.13 L1254.91,2469.86 Z" fill="none" stroke="rgb(0, 0, 0)" stroke-width="100.00" stroke-opacity="1.00" stroke-linejoin="miter"/>
<path d="M1257.58,2467.20 L1332.18,2467.20 L1332.18,2549.79 L1257.58,2549.79 L1257.58,2467.20 Z" fill="none" stroke="rgb(0, 0, 0)" stroke-width="100.00" stroke-opacity="1.00" stroke-linejoin="miter"/>
<path d="M1052.42,2469.86 L1265.57,2469.86 L1265.57,2544.46 L1052.42,2544.46 L1052.42,2469.86 Z" fill="none" stroke="rgb(0, 0, 0)" stroke-width="100.00" stroke-opacity="1.00" stroke-linejoin="miter"/>
</g>
<g stroke-linecap="round" id="Layer_4">
<path d="M1493.79,1038.90 L1687.46,1038.90 L1687.46,1965.20 L1493.79,1965.20 L1493.79,1038.90 Z" fill="none" stroke="rgb(245, 24, 13)" stroke-width="20.00" stroke-opacity="1.00" stroke-linejoin="miter"/>
<path d="M1696.46,1146.99 L1897.64,1146.99 L1897.64,1857.10 L1696.46,1857.10 L1696.46,1146.99 Z" fill="none" stroke="rgb(245, 24, 13)" stroke-width="20.00" stroke-opacity="1.00" stroke-linejoin="miter"/>
<path d="M1906.65,1358.67 L1951.68,1358.67 L1951.68,1366.18 L1906.65,1366.18 L1906.65,1358.67 Z" fill="none" stroke="rgb(245, 24, 13)" stroke-width="20.00" stroke-opacity="1.00" stroke-linejoin="miter"/>
<path d="M1906.65,1358.67 L1954.69,1358.67 L1954.69,1364.68 L1906.65,1364.68 L1906.65,1358.67 Z" fill="none" stroke="rgb(245, 24, 13)" stroke-width="20.00" stroke-opacity="1.00" stroke-linejoin="miter"/>
<path d="M1905.14,1355.67 L2001.23,1355.67 L2001.23,1648.42 L1905.14,1648.42 L1905.14,1355.67 Z" fill="none" stroke="rgb(245, 24, 13)" stroke-width="20.00" stroke-opacity="1.00" stroke-linejoin="miter"/>
<path d="M1540.33,1077.93 L1631.91,1077.93 L1631.91,1917.15 L1540.33,1917.15 L1540.33,1077.93 Z" fill="none" stroke="rgb(245, 24, 13)" stroke-width="100.00" stroke-opacity="1.00" stroke-linejoin="miter"/>
<path d="M1740.00,1244.57 L1786.54,1244.57 L1786.54,1697.97 L1740.00,1697.97 L1740.00,1244.57 Z" fill="none" stroke="rgb(245, 24, 13)" stroke-width="100.00" stroke-opacity="1.00" stroke-linejoin="miter"/>
<path d="M1783.54,1216.05 L1846.59,1216.05 L1846.59,1690.46 L1783.54,1690.46 L1783.54,1216.05 Z" fill="none" stroke="rgb(245, 24, 13)" stroke-width="100.00" stroke-opacity="1.00" stroke-linejoin="miter"/>
<path d="M1694.96,1747.51 L1846.59,1747.51 L1846.59,1806.06 L1694.96,1806.06 L1694.96,1747.51 Z" fill="none" stroke="rgb(245, 24, 13)" stroke-width="100.00" stroke-opacity="1.00" stroke-linejoin="miter"/>
<path d="M1678.45,1195.03 L1846.59,1195.03 L1846.59,1207.04 L1678.45,1207.04 L1678.45,1195.03 Z" fill="none" stroke="rgb(245, 24, 13)" stroke-width="100.00" stroke-opacity="1.00" stroke-linejoin="miter"/>
<path d="M1891.63,1402.21 L1948.68,1402.21 L1948.68,1409.72 L1891.63,1409.72 L1891.63,1402.21 Z" fill="none" stroke="rgb(245, 24, 13)" stroke-width="100.00" stroke-opacity="1.00" stroke-linejoin="miter"/>
<path d="M1881.12,1495.29 L1948.68,1495.29 L1948.68,1496.79 L1881.12,1496.79 L1881.12,1495.29 Z" fill="none" stroke="rgb(245, 24, 13)" stroke-width="100.00" stroke-opacity="1.00" stroke-linejoin="miter"/>
<path d="M1870.61,1565.85 L1947.18,1565.85 L1947.18,1579.36 L1870.61,1579.36 L1870.61,1565.85 Z" fill="none" stroke="rgb(245, 24, 13)" stroke-width="100.00" stroke-opacity="1.00" stroke-linejoin="miter"/>
<path d="M1852.60,1549.34 L1957.69,1549.34 L1957.69,1597.38 L1852.60,1597.38 L1852.60,1549.34 Z" fill="none" stroke="rgb(245, 24, 13)" stroke-width="100.00" stroke-opacity="1.00" stroke-linejoin="miter"/>
</g>
<g stroke-linecap="round" id="Layer_5">
<path d="M1283.61,1034.39 L1381.19,1034.39 L1381.19,1971.20 L1283.61,1971.20 L1283.61,1034.39 Z" fill="none" stroke="rgb(3, 103, 166)" stroke-width="10.00" stroke-opacity="1.00" stroke-linejoin="miter"/>
<path d="M1073.43,1139.48 L1286.61,1139.48 L1286.61,1864.61 L1073.43,1864.61 L1073.43,1139.48 Z" fill="none" stroke="rgb(3, 103, 166)" stroke-width="10.00" stroke-opacity="1.00" stroke-linejoin="miter"/>
<path d="M968.34,1348.16 L1127.47,1348.16 L1127.47,1657.43 L968.34,1657.43 L968.34,1348.16 Z" fill="none" stroke="rgb(3, 103, 166)" stroke-width="10.00" stroke-opacity="1.00" stroke-linejoin="miter"/>
<path d="M1145.49,1226.56 L1214.55,1226.56 L1214.55,1601.88 L1145.49,1601.88 L1145.49,1226.56 Z" fill="none" stroke="rgb(3, 103, 166)" stroke-width="50.00" stroke-opacity="1.00" stroke-linejoin="miter"/>
<path d="M1092.94,1159.00 L1270.10,1159.00 L1270.10,1839.09 L1092.94,1839.09 L1092.94,1159.00 Z" fill="none" stroke="rgb(3, 103, 166)" stroke-width="50.00" stroke-opacity="1.00" stroke-linejoin="miter"/>
<path d="M1127.47,1184.52 L1262.59,1184.52 L1262.59,1798.55 L1127.47,1798.55 L1127.47,1184.52 Z" fill="none" stroke="rgb(3, 103, 166)" stroke-width="50.00" stroke-opacity="1.00" stroke-linejoin="miter"/>
<path d="M1172.51,1228.06 L1181.52,1228.06 L1181.52,1559.85 L1172.51,1559.85 L1172.51,1228.06 Z" fill="none" stroke="rgb(3, 103, 166)" stroke-width="50.00" stroke-opacity="1.00" stroke-linejoin="miter"/>
<path d="M1149.99,1621.40 L1228.06,1621.40 L1228.06,1777.53 L1149.99,1777.53 L1149.99,1621.40 Z" fill="none" stroke="rgb(3, 103, 166)" stroke-width="50.00" stroke-opacity="1.00" stroke-linejoin="miter"/>
<path d="M1184.52,1576.36 L1207.04,1576.36 L1207.04,1764.02 L1184.52,1764.02 L1184.52,1576.36 Z" fill="none" stroke="rgb(3, 103, 166)" stroke-width="50.00" stroke-opacity="1.00" stroke-linejoin="miter"/>
<path d="M1303.12,1056.91 L1355.67,1056.91 L1355.67,1945.68 L1303.12,1945.68 L1303.12,1056.91 Z" fill="none" stroke="rgb(3, 103, 166)" stroke-width="50.00" stroke-opacity="1.00" stroke-linejoin="miter"/>
<path d="M1328.65,1073.43 L1336.15,1073.43 L1336.15,1911.15 L1328.65,1911.15 L1328.65,1073.43 Z" fill="none" stroke="rgb(3, 103, 166)" stroke-width="50.00" stroke-opacity="1.00" stroke-linejoin="miter"/>
<path d="M989.35,1367.68 L990.86,1367.68 L990.86,1378.19 L989.35,1378.19 L989.35,1367.68 Z" fill="none" stroke="rgb(3, 103, 166)" stroke-width="50.00" stroke-opacity="1.00" stroke-linejoin="miter"/>
<path d="M992.36,1375.19 L1113.96,1375.19 L1113.96,1631.91 L992.36,1631.91 L992.36,1375.19 Z" fill="none" stroke="rgb(3, 103, 166)" stroke-width="50.00" stroke-opacity="1.00" stroke-linejoin="miter"/>
<path d="M1020.88,1409.72 L1101.95,1409.72 L1101.95,1412.72 L1020.88,1412.72 L1020.88,1409.72 Z" fill="none" stroke="rgb(3, 103, 166)" stroke-width="50.00" stroke-opacity="1.00" stroke-linejoin="miter"/>
<path d="M1029.89,1426.23 L1089.94,1426.23 L1089.94,1586.87 L1029.89,1586.87 L1029.89,1426.23 Z" fill="none" stroke="rgb(3, 103, 166)" stroke-width="50.00" stroke-opacity="1.00" stroke-linejoin="miter"/>
<path d="M1055.41,1456.26 L1070.42,1456.26 L1070.42,1567.35 L1055.41,1567.35 L1055.41,1456.26 Z" fill="none" stroke="rgb(3, 103, 166)" stroke-width="50.00" stroke-opacity="1.00" stroke-linejoin="miter"/>
</g>
<g stroke-linecap="round" id="Layer_7">
<path d="M1074.93,1351.17 L1172.51,1351.17 L1172.51,1654.43 L1074.93,1654.43 L1074.93,1351.17 Z" fill="none" stroke="rgb(0, 0, 0)" stroke-width="10.00" stroke-opacity="1.00" stroke-linejoin="miter"/>
<path d="M1180.02,1556.84 L1277.60,1556.84 L1277.60,1759.52 L1180.02,1759.52 L1180.02,1556.84 Z" fill="none" stroke="rgb(0, 0, 0)" stroke-width="10.00" stroke-opacity="1.00" stroke-linejoin="miter"/>
<path d="M1270.10,1661.93 L1421.73,1661.93 L1421.73,1759.52 L1270.10,1759.52 L1270.10,1661.93 Z" fill="none" stroke="rgb(0, 0, 0)" stroke-width="10.00" stroke-opacity="1.00" stroke-linejoin="miter"/>
<path d="M1807.56,1349.66 L1903.64,1349.66 L1903.64,1654.43 L1807.56,1654.43 L1807.56,1349.66 Z" fill="none" stroke="rgb(0, 0, 0)" stroke-width="10.00" stroke-opacity="1.00" stroke-linejoin="miter"/>
<path d="M1598.88,1558.34 L1837.59,1558.34 L1837.59,1654.43 L1598.88,1654.43 L1598.88,1558.34 Z" fill="none" stroke="rgb(0, 0, 0)" stroke-width="10.00" stroke-opacity="1.00" stroke-linejoin="miter"/>
<path d="M1595.88,1558.34 L1696.46,1558.34 L1696.46,1759.52 L1595.88,1759.52 L1595.88,1558.34 Z" fill="none" stroke="rgb(0, 0, 0)" stroke-width="10.00" stroke-opacity="1.00" stroke-linejoin="miter"/>
<path d="M1085.44,1358.67 L1089.94,1358.67 L1089.94,1648.42 L1085.44,1648.42 L1085.44,1358.67 Z" fill="none" stroke="rgb(0, 0, 0)" stroke-width="20.00" stroke-opacity="1.00" stroke-linejoin="miter"/>
<path d="M1103.45,1360.17 L1112.46,1360.17 L1112.46,1640.92 L1103.45,1640.92 L1103.45,1360.17 Z" fill="none" stroke="rgb(0, 0, 0)" stroke-width="20.00" stroke-opacity="1.00" stroke-linejoin="miter"/>
<path d="M1128.97,1358.67 L1136.48,1358.67 L1136.48,1646.92 L1128.97,1646.92 L1128.97,1358.67 Z" fill="none" stroke="rgb(0, 0, 0)" stroke-width="20.00" stroke-opacity="1.00" stroke-linejoin="miter"/>
<path d="M1145.49,1358.67 L1160.50,1358.67 L1160.50,1645.42 L1145.49,1645.42 L1145.49,1358.67 Z" fill="none" stroke="rgb(0, 0, 0)" stroke-width="20.00" stroke-opacity="1.00" stroke-linejoin="miter"/>
<path d="M1174.01,1564.35 L1268.59,1564.35 L1268.59,1646.92 L1174.01,1646.92 L1174.01,1564.35 Z" fill="none" stroke="rgb(0, 0, 0)" stroke-width="20.00" stroke-opacity="1.00" stroke-linejoin="miter"/>
<path d="M1184.52,1573.36 L1256.58,1573.36 L1256.58,1636.41 L1184.52,1636.41 L1184.52,1573.36 Z" fill="none" stroke="rgb(0, 0, 0)" stroke-width="20.00" stroke-opacity="1.00" stroke-linejoin="miter"/>
<path d="M1195.03,1588.37 L1255.08,1588.37 L1255.08,1627.40 L1195.03,1627.40 L1195.03,1588.37 Z" fill="none" stroke="rgb(0, 0, 0)" stroke-width="20.00" stroke-opacity="1.00" stroke-linejoin="miter"/>
<path d="M1192.03,1646.92 L1265.59,1646.92 L1265.59,1749.01 L1192.03,1749.01 L1192.03,1646.92 Z" fill="none" stroke="rgb(0, 0, 0)" stroke-width="20.00" stroke-opacity="1.00" stroke-linejoin="miter"/>
<path d="M1204.04,1592.87 L1214.55,1592.87 L1214.55,1734.00 L1204.04,1734.00 L1204.04,1592.87 Z" fill="none" stroke="rgb(0, 0, 0)" stroke-width="20.00" stroke-opacity="1.00" stroke-linejoin="miter"/>
<path d="M1226.56,1594.38 L1241.57,1594.38 L1241.57,1735.50 L1226.56,1735.50 L1226.56,1594.38 Z" fill="none" stroke="rgb(0, 0, 0)" stroke-width="20.00" stroke-opacity="1.00" stroke-linejoin="miter"/>
<path d="M1253.58,1613.89 L1253.58,1613.89 L1253.58,1732.50 L1253.58,1732.50 L1253.58,1613.89 Z" fill="none" stroke="rgb(0, 0, 0)" stroke-width="20.00" stroke-opacity="1.00" stroke-linejoin="miter"/>
<path d="M1273.10,1672.44 L1397.71,1672.44 L1397.71,1750.51 L1273.10,1750.51 L1273.10,1672.44 Z" fill="none" stroke="rgb(0, 0, 0)" stroke-width="20.00" stroke-opacity="1.00" stroke-linejoin="miter"/>
<path d="M1292.62,1676.95 L1396.20,1676.95 L1396.20,1738.50 L1292.62,1738.50 L1292.62,1676.95 Z" fill="none" stroke="rgb(0, 0, 0)" stroke-width="20.00" stroke-opacity="1.00" stroke-linejoin="miter"/>
<path d="M1285.11,1679.95 L1285.11,1679.95 L1285.11,1734.00 L1285.11,1734.00 L1285.11,1679.95 Z" fill="none" stroke="rgb(0, 0, 0)" stroke-width="20.00" stroke-opacity="1.00" stroke-linejoin="miter"/>
<path d="M1286.61,1691.96 L1391.70,1691.96 L1391.70,1723.49 L1286.61,1723.49 L1286.61,1691.96 Z" fill="none" stroke="rgb(0, 0, 0)" stroke-width="20.00" stroke-opacity="1.00" stroke-linejoin="miter"/>
<path d="M1288.11,1702.47 L1373.69,1702.47 L1373.69,1718.98 L1288.11,1718.98 L1288.11,1702.47 Z" fill="none" stroke="rgb(0, 0, 0)" stroke-width="20.00" stroke-opacity="1.00" stroke-linejoin="miter"/>
<path d="M1603.38,1564.35 L1896.14,1564.35 L1896.14,1597.38 L1603.38,1597.38 L1603.38,1564.35 Z" fill="none" stroke="rgb(0, 0, 0)" stroke-width="20.00" stroke-opacity="1.00" stroke-linejoin="miter"/>
<path d="M1613.89,1577.86 L1884.13,1577.86 L1884.13,1583.87 L1613.89,1583.87 L1613.89,1577.86 Z" fill="none" stroke="rgb(0, 0, 0)" stroke-width="20.00" stroke-opacity="1.00" stroke-linejoin="miter"/>
<path d="M1603.38,1615.39 L1891.63,1615.39 L1891.63,1642.42 L1603.38,1642.42 L1603.38,1615.39 Z" fill="none" stroke="rgb(0, 0, 0)" stroke-width="20.00" stroke-opacity="1.00" stroke-linejoin="miter"/>
<path d="M1616.90,1627.40 L1878.12,1627.40 L1878.12,1627.40 L1616.90,1627.40 L1616.90,1627.40 Z" fill="none" stroke="rgb(0, 0, 0)" stroke-width="20.00" stroke-opacity="1.00" stroke-linejoin="miter"/>
<path d="M1818.07,1357.17 L1890.13,1357.17 L1890.13,1583.87 L1818.07,1583.87 L1818.07,1357.17 Z" fill="none" stroke="rgb(0, 0, 0)" stroke-width="20.00" stroke-opacity="1.00" stroke-linejoin="miter"/>
<path d="M1828.58,1366.18 L1873.62,1366.18 L1873.62,1592.87 L1828.58,1592.87 L1828.58,1366.18 Z" fill="none" stroke="rgb(0, 0, 0)" stroke-width="20.00" stroke-opacity="1.00" stroke-linejoin="miter"/>
<path d="M1834.58,1378.19 L1861.61,1378.19 L1861.61,1594.38 L1834.58,1594.38 L1834.58,1378.19 Z" fill="none" stroke="rgb(0, 0, 0)" stroke-width="20.00" stroke-opacity="1.00" stroke-linejoin="miter"/>
<path d="M1848.09,1397.71 L1848.09,1397.71 L1848.09,1573.36 L1848.09,1573.36 L1848.09,1397.71 Z" fill="none" stroke="rgb(0, 0, 0)" stroke-width="20.00" stroke-opacity="1.00" stroke-linejoin="miter"/>
<path d="M1843.59,1382.69 L1861.61,1382.69 L1861.61,1391.70 L1843.59,1391.70 L1843.59,1382.69 Z" fill="none" stroke="rgb(0, 0, 0)" stroke-width="20.00" stroke-opacity="1.00" stroke-linejoin="miter"/>
<path d="M1601.88,1639.41 L1684.45,1639.41 L1684.45,1749.01 L1601.88,1749.01 L1601.88,1639.41 Z" fill="none" stroke="rgb(0, 0, 0)" stroke-width="20.00" stroke-opacity="1.00" stroke-linejoin="miter"/>
<path d="M1624.40,1648.42 L1673.94,1648.42 L1673.94,1741.50 L1624.40,1741.50 L1624.40,1648.42 Z" fill="none" stroke="rgb(0, 0, 0)" stroke-width="20.00" stroke-opacity="1.00" stroke-linejoin="miter"/>
<path d="M1612.39,1654.43 L1633.41,1654.43 L1633.41,1735.50 L1612.39,1735.50 L1612.39,1654.43 Z" fill="none" stroke="rgb(0, 0, 0)" stroke-width="20.00" stroke-opacity="1.00" stroke-linejoin="miter"/>
<path d="M1645.42,1652.93 L1661.93,1652.93 L1661.93,1735.50 L1645.42,1735.50 L1645.42,1652.93 Z" fill="none" stroke="rgb(0, 0, 0)" stroke-width="20.00" stroke-opacity="1.00" stroke-linejoin="miter"/>
</g>
<g stroke-linecap="round" id="Layer_6">
<path d="M1411.22,1053.91 L1429.23,1053.91 L1429.23,1953.19 L1411.22,1953.19 L1411.22,1053.91 Z" fill="none" stroke="rgb(38, 38, 38)" stroke-width="50.00" stroke-opacity="1.00" stroke-linejoin="miter"/>
<path d="M1456.26,1058.41 L1456.26,1058.41 L1456.26,1070.42 L1456.26,1070.42 L1456.26,1058.41 Z" fill="none" stroke="rgb(38, 38, 38)" stroke-width="50.00" stroke-opacity="1.00" stroke-linejoin="miter"/>
<path d="M1447.25,1053.91 L1459.26,1053.91 L1459.26,1953.19 L1447.25,1953.19 L1447.25,1053.91 Z" fill="none" stroke="rgb(38, 38, 38)" stroke-width="50.00" stroke-opacity="1.00" stroke-linejoin="miter"/>
</g>
<g stroke-linecap="round" id="Layer_3">
<path d="M1707.61,619.45 L2423.78,619.45 L2423.78,817.53 L1709.00,817.53" fill="none" stroke="rgb(22, 242, 202)" stroke-width="20.00" stroke-opacity="1.00" stroke-linejoin="miter"/>
<path d="M1276.94,816.05 L1275.17,817.53 L551.02,817.53 L551.02,619.45 L1264.06,619.45" fill="none" stroke="rgb(255, 255, 255)" stroke-width="20.00" stroke-opacity="1.00" stroke-linejoin="miter"/>
<path d="M551.02,1338.37 L551.02,619.45 L752.70,619.45 L752.70,1338.66" fill="none" stroke="rgb(255, 255, 255)" stroke-width="20.00" stroke-opacity="1.00" stroke-linejoin="miter"/>
<path d="M752.70,1663.86 L752.70,2384.16 L551.02,2384.16 L551.02,1663.27" fill="none" stroke="rgb(255, 255, 255)" stroke-width="20.00" stroke-opacity="1.00" stroke-linejoin="miter"/>
<path d="M1714.39,2187.40 L2423.82,2187.40 L2423.82,2384.73 L1706.06,2385.44" fill="none" stroke="rgb(255, 255, 255)" stroke-width="20.00" stroke-opacity="1.00" stroke-linejoin="miter"/>
<path d="M1273.18,2385.87 L552.90,2386.59 L552.90,2187.40 L1261.23,2187.40" fill="none" stroke="rgb(255, 255, 255)" stroke-width="20.00" stroke-opacity="1.00" stroke-linejoin="miter"/>
<path d="M2225.49,1338.59 L2225.49,816.37 L2424.26,816.37 L2424.26,1333.28" fill="none" stroke="rgb(22, 242, 202)" stroke-width="20.00" stroke-opacity="1.00" stroke-linejoin="miter"/>
<path d="M2424.26,1674.20 L2424.26,2385.21 L2225.49,2385.21 L2225.49,1665.26" fill="none" stroke="rgb(255, 255, 255)" stroke-width="20.00" stroke-opacity="1.00" stroke-linejoin="miter"/>
<path d="M553.71,1323.94 L745.38,1323.94 L745.38,1338.13 L553.71,1338.13 L553.71,1323.94 Z" fill="none" stroke="rgb(255, 255, 255)" stroke-width="20.00" stroke-opacity="1.00" stroke-linejoin="miter"/>
<path d="M557.26,1668.23 L745.38,1668.23 L745.38,1682.43 L557.26,1682.43 L557.26,1668.23 Z" fill="none" stroke="rgb(255, 255, 255)" stroke-width="20.00" stroke-opacity="1.00" stroke-linejoin="miter"/>
<path d="M557.26,1664.68 L748.93,1664.68 L748.93,1675.33 L557.26,1675.33 L557.26,1664.68 Z" fill="none" stroke="rgb(255, 255, 255)" stroke-width="20.00" stroke-opacity="1.00" stroke-linejoin="miter"/>
<path d="M2229.04,1320.39 L2424.26,1320.39 L2424.26,1338.13 L2229.04,1338.13 L2229.04,1320.39 Z" fill="none" stroke="rgb(22, 242, 202)" stroke-width="20.00" stroke-opacity="1.00" stroke-linejoin="miter"/>
<path d="M2229.04,1664.68 L2424.26,1664.68 L2424.26,1668.23 L2229.04,1668.23 L2229.04,1664.68 Z" fill="none" stroke="rgb(255, 255, 255)" stroke-width="20.00" stroke-opacity="1.00" stroke-linejoin="miter"/>
<path d="M1274.16,653.08 L1274.16,810.05 L1076.49,810.05 L1076.49,515.68 L1274.16,515.68 L1274.16,591.55" fill="none" stroke="rgb(255, 255, 255)" stroke-width="20.00" stroke-opacity="1.00" stroke-linejoin="miter"/>
<path d="M1706.05,515.68 L1899.43,515.68 L1899.43,807.90 L1706.05,807.90 L1706.05,515.68 Z" fill="none" stroke="rgb(22, 242, 202)" stroke-width="20.00" stroke-opacity="1.00" stroke-linejoin="miter"/>
<path d="M1274.16,2216.70 L1274.16,2488.17 L1076.49,2488.17 L1076.49,2195.95 L1264.28,2195.95" fill="none" stroke="rgb(255, 255, 255)" stroke-width="20.00" stroke-opacity="1.00" stroke-linejoin="miter"/>
<path d="M1706.05,2198.10 L1899.43,2198.10 L1899.43,2488.17 L1706.05,2488.17 L1706.05,2198.10 Z" fill="none" stroke="rgb(255, 255, 255)" stroke-width="20.00" stroke-opacity="1.00" stroke-linejoin="miter"/>
<path d="M1270.25,540.80 L1274.44,540.80 L1274.44,700.10 L1270.25,700.10 L1270.25,540.80 Z" fill="none" stroke="rgb(255, 255, 255)" stroke-width="20.00" stroke-opacity="1.00" stroke-linejoin="miter"/>
<path d="M1706.24,806.31 L1709.04,806.31 L1709.04,817.49 L1706.24,817.49 L1706.24,806.31 Z" fill="none" stroke="rgb(22, 242, 202)" stroke-width="20.00" stroke-opacity="1.00" stroke-linejoin="miter"/>
<path d="M1707.64,2191.14 L1710.43,2191.14 L1710.43,2195.34 L1707.64,2195.34 L1707.64,2191.14 Z" fill="none" stroke="rgb(0, 0, 0)" stroke-width="20.00" stroke-opacity="1.00" stroke-linejoin="miter"/>
<path d="M1706.24,2188.35 L1730.00,2188.35 L1730.00,2216.30 L1706.24,2216.30 L1706.24,2188.35 Z" fill="none" stroke="rgb(255, 255, 255)" stroke-width="20.00" stroke-opacity="1.00" stroke-linejoin="miter"/>
<path d="M1717.42,2205.12 L1746.77,2205.12 L1746.77,2228.87 L1717.42,2228.87 L1717.42,2205.12 Z" fill="none" stroke="rgb(255, 255, 255)" stroke-width="20.00" stroke-opacity="1.00" stroke-linejoin="miter"/>
<path d="M1243.70,2188.35 L1274.44,2188.35 L1274.44,2221.89 L1243.70,2221.89 L1243.70,2188.35 Z" fill="none" stroke="rgb(255, 255, 255)" stroke-width="20.00" stroke-opacity="1.00" stroke-linejoin="miter"/>
<path d="M1253.48,2203.72 L1257.67,2203.72 L1257.67,2270.80 L1253.48,2270.80 L1253.48,2203.72 Z" fill="none" stroke="rgb(255, 255, 255)" stroke-width="20.00" stroke-opacity="1.00" stroke-linejoin="miter"/>
<path d="M1725.72,554.76 L1870.92,554.76 L1870.92,780.02 L1725.72,780.02 L1725.72,554.76 Z" fill="none" stroke="rgb(22, 242, 202)" stroke-width="50.00" stroke-opacity="1.00" stroke-linejoin="miter"/>
<path d="M1757.36,588.27 L1846.72,588.27 L1846.72,752.09 L1757.36,752.09 L1757.36,588.27 Z" fill="none" stroke="rgb(22, 242, 202)" stroke-width="50.00" stroke-opacity="1.00" stroke-linejoin="miter"/>
<path d="M1790.87,629.23 L1805.77,629.23 L1805.77,737.20 L1790.87,737.20 L1790.87,629.23 Z" fill="none" stroke="rgb(22, 242, 202)" stroke-width="50.00" stroke-opacity="1.00" stroke-linejoin="miter"/>
<path d="M1727.58,541.73 L1874.65,541.73 L1874.65,558.48 L1727.58,558.48 L1727.58,541.73 Z" fill="none" stroke="rgb(22, 242, 202)" stroke-width="50.00" stroke-opacity="1.00" stroke-linejoin="miter"/>
<path d="M1891.40,647.84 L2407.07,647.84 L2407.07,660.87 L1891.40,660.87 L1891.40,647.84 Z" fill="none" stroke="rgb(22, 242, 202)" stroke-width="50.00" stroke-opacity="1.00" stroke-linejoin="miter"/>
<path d="M1889.54,692.52 L2397.76,692.52 L2397.76,724.17 L1889.54,724.17 L1889.54,692.52 Z" fill="none" stroke="rgb(22, 242, 202)" stroke-width="50.00" stroke-opacity="1.00" stroke-linejoin="miter"/>
<path d="M1880.23,757.68 L2394.04,757.68 L2394.04,780.02 L1880.23,780.02 L1880.23,757.68 Z" fill="none" stroke="rgb(22, 242, 202)" stroke-width="50.00" stroke-opacity="1.00" stroke-linejoin="miter"/>
<path d="M1900.71,776.29 L2399.62,776.29 L2399.62,789.32 L1900.71,789.32 L1900.71,776.29 Z" fill="none" stroke="rgb(22, 242, 202)" stroke-width="50.00" stroke-opacity="1.00" stroke-linejoin="miter"/>
<path d="M2256.28,835.87 L2280.48,835.87 L2280.48,1304.99 L2256.28,1304.99 L2256.28,835.87 Z" fill="none" stroke="rgb(22, 242, 202)" stroke-width="50.00" stroke-opacity="1.00" stroke-linejoin="miter"/>
<path d="M2319.57,828.42 L2336.33,828.42 L2336.33,1306.85 L2319.57,1306.85 L2319.57,828.42 Z" fill="none" stroke="rgb(22, 242, 202)" stroke-width="50.00" stroke-opacity="1.00" stroke-linejoin="miter"/>
<path d="M2375.42,813.53 L2395.90,813.53 L2395.90,1312.44 L2375.42,1312.44 L2375.42,813.53 Z" fill="none" stroke="rgb(22, 242, 202)" stroke-width="50.00" stroke-opacity="1.00" stroke-linejoin="miter"/>
<path d="M1744.33,2209.74 L2399.62,2209.74 L2399.62,2233.94 L1744.33,2233.94 L1744.33,2209.74 Z" fill="none" stroke="rgb(255, 255, 255)" stroke-width="50.00" stroke-opacity="1.00" stroke-linejoin="miter"/>
<path d="M1725.72,2254.42 L2399.62,2254.42 L2399.62,2306.54 L1725.72,2306.54 L1725.72,2254.42 Z" fill="none" stroke="rgb(255, 255, 255)" stroke-width="50.00" stroke-opacity="1.00" stroke-linejoin="miter"/>
<path d="M1738.75,2289.79 L2379.14,2289.79 L2379.14,2293.51 L1738.75,2293.51 L1738.75,2289.79 Z" fill="none" stroke="rgb(255, 255, 255)" stroke-width="50.00" stroke-opacity="1.00" stroke-linejoin="miter"/>
<path d="M1733.16,2341.91 L2399.62,2341.91 L2399.62,2354.94 L1733.16,2354.94 L1733.16,2341.91 Z" fill="none" stroke="rgb(255, 255, 255)" stroke-width="50.00" stroke-opacity="1.00" stroke-linejoin="miter"/>
<path d="M1748.06,2351.22 L1789.01,2351.22 L1789.01,2425.68 L1748.06,2425.68 L1748.06,2351.22 Z" fill="none" stroke="rgb(255, 255, 255)" stroke-width="50.00" stroke-opacity="1.00" stroke-linejoin="miter"/>
<path d="M1733.16,2360.53 L1867.20,2360.53 L1867.20,2461.06 L1733.16,2461.06 L1733.16,2360.53 Z" fill="none" stroke="rgb(255, 255, 255)" stroke-width="50.00" stroke-opacity="1.00" stroke-linejoin="miter"/>
<path d="M1822.52,2379.14 L1839.28,2379.14 L1839.28,2431.27 L1822.52,2431.27 L1822.52,2379.14 Z" fill="none" stroke="rgb(255, 255, 255)" stroke-width="50.00" stroke-opacity="1.00" stroke-linejoin="miter"/>
<path d="M2258.14,1697.79 L2392.18,1697.79 L2392.18,2209.74 L2258.14,2209.74 L2258.14,1697.79 Z" fill="none" stroke="rgb(255, 255, 255)" stroke-width="50.00" stroke-opacity="1.00" stroke-linejoin="miter"/>
<path d="M2286.06,1727.58 L2358.67,1727.58 L2358.67,2217.18 L2286.06,2217.18 L2286.06,1727.58 Z" fill="none" stroke="rgb(255, 255, 255)" stroke-width="50.00" stroke-opacity="1.00" stroke-linejoin="miter"/>
<path d="M2319.57,1740.61 L2334.47,1740.61 L2334.47,2243.25 L2319.57,2243.25 L2319.57,1740.61 Z" fill="none" stroke="rgb(255, 255, 255)" stroke-width="50.00" stroke-opacity="1.00" stroke-linejoin="miter"/>
<path d="M1098.35,2228.35 L1245.42,2228.35 L1245.42,2461.06 L1098.35,2461.06 L1098.35,2228.35 Z" fill="none" stroke="rgb(255, 255, 255)" stroke-width="50.00" stroke-opacity="1.00" stroke-linejoin="miter"/>
<path d="M1135.59,2256.28 L1210.05,2256.28 L1210.05,2429.41 L1135.59,2429.41 L1135.59,2256.28 Z" fill="none" stroke="rgb(255, 255, 255)" stroke-width="50.00" stroke-opacity="1.00" stroke-linejoin="miter"/>
<path d="M1154.20,2278.62 L1182.13,2278.62 L1182.13,2416.38 L1154.20,2416.38 L1154.20,2278.62 Z" fill="none" stroke="rgb(255, 255, 255)" stroke-width="50.00" stroke-opacity="1.00" stroke-linejoin="miter"/>
<path d="M580.82,2217.18 L1074.15,2217.18 L1074.15,2265.59 L580.82,2265.59 L580.82,2217.18 Z" fill="none" stroke="rgb(255, 255, 255)" stroke-width="50.00" stroke-opacity="1.00" stroke-linejoin="miter"/>
<path d="M588.27,2243.25 L1135.59,2243.25 L1135.59,2246.97 L588.27,2246.97 L588.27,2243.25 Z" fill="none" stroke="rgb(255, 255, 255)" stroke-width="50.00" stroke-opacity="1.00" stroke-linejoin="miter"/>
<path d="M567.79,2304.68 L1109.52,2304.68 L1109.52,2321.43 L567.79,2321.43 L567.79,2304.68 Z" fill="none" stroke="rgb(255, 255, 255)" stroke-width="50.00" stroke-opacity="1.00" stroke-linejoin="miter"/>
<path d="M577.10,2340.05 L1100.21,2340.05 L1100.21,2356.80 L577.10,2356.80 L577.10,2340.05 Z" fill="none" stroke="rgb(255, 255, 255)" stroke-width="50.00" stroke-opacity="1.00" stroke-linejoin="miter"/>
<path d="M584.55,1716.41 L724.17,1716.41 L724.17,2219.05 L584.55,2219.05 L584.55,1716.41 Z" fill="none" stroke="rgb(255, 255, 255)" stroke-width="50.00" stroke-opacity="1.00" stroke-linejoin="miter"/>
<path d="M565.93,1692.21 L729.75,1692.21 L729.75,2192.98 L565.93,2192.98 L565.93,1692.21 Z" fill="none" stroke="rgb(255, 255, 255)" stroke-width="50.00" stroke-opacity="1.00" stroke-linejoin="miter"/>
<path d="M623.64,1738.75 L660.87,1738.75 L660.87,2235.80 L623.64,2235.80 L623.64,1738.75 Z" fill="none" stroke="rgb(255, 255, 255)" stroke-width="50.00" stroke-opacity="1.00" stroke-linejoin="miter"/>
<path d="M670.18,1725.72 L698.11,1725.72 L698.11,2187.40 L670.18,2187.40 L670.18,1725.72 Z" fill="none" stroke="rgb(255, 255, 255)" stroke-width="50.00" stroke-opacity="1.00" stroke-linejoin="miter"/>
<path d="M582.69,649.70 L724.17,649.70 L724.17,1306.85 L582.69,1306.85 L582.69,649.70 Z" fill="none" stroke="rgb(255, 255, 255)" stroke-width="50.00" stroke-opacity="1.00" stroke-linejoin="miter"/>
<path d="M605.02,660.87 L696.24,660.87 L696.24,1278.93 L605.02,1278.93 L605.02,660.87 Z" fill="none" stroke="rgb(255, 255, 255)" stroke-width="50.00" stroke-opacity="1.00" stroke-linejoin="miter"/>
<path d="M638.53,675.77 L675.77,675.77 L675.77,1269.62 L638.53,1269.62 L638.53,675.77 Z" fill="none" stroke="rgb(255, 255, 255)" stroke-width="50.00" stroke-opacity="1.00" stroke-linejoin="miter"/>
<path d="M739.06,660.87 L1252.87,660.87 L1252.87,698.11 L739.06,698.11 L739.06,660.87 Z" fill="none" stroke="rgb(255, 255, 255)" stroke-width="50.00" stroke-opacity="1.00" stroke-linejoin="miter"/>
<path d="M1096.49,534.28 L1247.28,534.28 L1247.28,698.11 L1096.49,698.11 L1096.49,534.28 Z" fill="none" stroke="rgb(255, 255, 255)" stroke-width="50.00" stroke-opacity="1.00" stroke-linejoin="miter"/>
<path d="M1131.86,575.24 L1226.80,575.24 L1226.80,679.49 L1131.86,679.49 L1131.86,575.24 Z" fill="none" stroke="rgb(255, 255, 255)" stroke-width="50.00" stroke-opacity="1.00" stroke-linejoin="miter"/>
<path d="M1157.92,597.58 L1206.33,597.58 L1206.33,670.18 L1157.92,670.18 L1157.92,597.58 Z" fill="none" stroke="rgb(255, 255, 255)" stroke-width="50.00" stroke-opacity="1.00" stroke-linejoin="miter"/>
<path d="M753.95,640.40 L1059.26,640.40 L1059.26,686.94 L753.95,686.94 L753.95,640.40 Z" fill="none" stroke="rgb(255, 255, 255)" stroke-width="50.00" stroke-opacity="1.00" stroke-linejoin="miter"/>
<path d="M748.37,724.17 L1249.14,724.17 L1249.14,785.60 L748.37,785.60 L748.37,724.17 Z" fill="none" stroke="rgb(255, 255, 255)" stroke-width="50.00" stroke-opacity="1.00" stroke-linejoin="miter"/>
<path d="M744.65,744.65 L1223.08,744.65 L1223.08,746.51 L744.65,746.51 L744.65,744.65 Z" fill="none" stroke="rgb(255, 255, 255)" stroke-width="50.00" stroke-opacity="1.00" stroke-linejoin="miter"/>
</g>
</svg>
