<svg width="130" height="25" viewBox="0 0 130 25" fill="none" xmlns="http://www.w3.org/2000/svg">
<path d="M39.1925 18.6014C35.8755 18.6014 33.3011 17.0642 33.124 14.7564H35.6983C35.964 15.876 37.3568 16.595 39.1563 16.595C40.8329 16.595 42.0144 15.9255 42.0144 15.0234C42.0144 12.2312 33.283 15.073 33.283 9.72514C33.283 7.66914 35.5756 6.39893 38.6108 6.39893C41.8211 6.39893 44.0795 7.85414 44.2727 9.97689H41.7145C41.5031 9.07477 40.1969 8.33858 38.6108 8.33858C36.8818 8.33858 35.7527 8.95652 35.7527 9.7938C35.7527 12.3838 44.484 9.67746 44.484 15.0921C44.484 17.0298 42.4894 18.6014 39.1925 18.6014Z" fill="white"/>
<path d="M55.2803 12.8685V6.65088H57.7499V12.8685C57.7499 16.0936 55.4212 18.552 51.9995 18.552C48.6482 18.552 46.249 16.0955 46.249 12.8685V6.65088H48.7187V12.8685C48.7187 14.8577 50.1115 16.311 51.9995 16.311C53.9237 16.311 55.2803 14.9073 55.2803 12.8685Z" fill="white"/>
<path d="M59.9766 6.65088H66.2906C68.9374 6.65088 71.1594 8.30636 71.1594 10.7972C71.1594 13.1545 68.8126 14.9416 66.2906 14.9416H62.4462V18.3517H59.9766V6.65088ZM66.2906 8.80605H62.4462V12.7502H66.2906C67.6492 12.7502 68.6898 11.8977 68.6898 10.7953C68.6918 9.64142 67.6673 8.80605 66.2906 8.80605Z" fill="white"/>
<path d="M79.1177 6.39893C82.9801 6.39893 85.8745 8.85544 85.8745 12.5173C85.8745 16.1277 82.9821 18.6014 79.1177 18.6014C75.2552 18.6014 72.3447 15.9942 72.3447 12.5173C72.3447 8.99085 75.2371 6.39893 79.1177 6.39893ZM79.1177 16.3623C81.6759 16.3623 83.4048 14.7736 83.4048 12.5173C83.4048 10.2115 81.6759 8.63992 79.1177 8.63992C76.5957 8.63992 74.8144 10.2115 74.8144 12.5173C74.8144 14.7736 76.6138 16.3623 79.1177 16.3623Z" fill="white"/>
<path d="M90.0566 18.3517H87.5869V6.65088H89.5634L97.2361 14.4076V6.65088H99.7057V18.3517H97.7131L90.0566 10.5454V18.3517Z" fill="white"/>
<path d="M105.531 8.80605H101.155V6.65088H112.34V8.80796H108.001V18.3517H105.531V8.80605Z" fill="white"/>
<path d="M116.293 18.3517H113.823V6.65088H116.293V18.3517Z" fill="white"/>
<path d="M124.055 18.6014C120.738 18.6014 118.163 17.0642 117.986 14.7564H120.561C120.826 15.876 122.219 16.595 124.019 16.595C125.695 16.595 126.877 15.9255 126.877 15.0234C126.877 12.2312 118.145 15.073 118.145 9.72514C118.145 7.66914 120.438 6.39893 123.473 6.39893C126.683 6.39893 128.942 7.85414 129.135 9.97689H126.577C126.365 9.07477 125.059 8.33858 123.473 8.33858C121.744 8.33858 120.615 8.95652 120.615 9.7938C120.615 12.3838 129.346 9.67746 129.346 15.0921C129.348 17.0298 127.354 18.6014 124.055 18.6014Z" fill="white"/>
<path d="M20.9427 7.64609C22.5308 8.018 24.1008 8.58255 25.6345 9.32446C25.7532 9.38549 25.874 9.44652 25.9948 9.50946C24.5798 4.05096 19.3788 0 13.1815 0C7.0205 0 1.8457 4.00709 0.398526 9.41982C0.380411 9.48848 0.362296 9.55905 0.346194 9.62962C0.322041 9.7307 0.295875 9.83178 0.273735 9.93287C0.243544 10.0664 0.217378 10.2018 0.191212 10.3372C0.187186 10.3582 0.181148 10.3811 0.177123 10.402C0.177123 10.4078 0.177123 10.4116 0.17511 10.4173C0.0865486 10.9056 0.0261658 11.3976 0 11.8973C0.167059 11.6913 0.889639 11.1459 1.98659 10.9056C4.82055 10.2819 7.68672 10.3029 10.41 10.6462C13.4513 11.0333 16.3577 11.9355 18.9038 13.2972C16.0517 12.6907 13.1594 12.6507 10.4221 13.0684C7.68269 13.4879 5.09026 14.3519 2.89032 15.6221C2.88227 15.6279 2.87422 15.6317 2.87019 15.6355C1.59209 16.3621 1.21571 17.9566 2.00873 19.1505C4.34353 22.6655 8.47572 25 13.1815 25C17.4345 25 21.2185 23.0909 23.6298 20.1289C23.6922 20.0526 23.7525 19.9783 23.8129 19.9001C23.827 19.8848 23.8351 19.8695 23.8471 19.8543C24.1813 19.3794 24.3765 18.8091 24.3765 18.1969C24.3765 17.68 24.2376 17.1937 23.9941 16.7684C23.4989 15.912 22.8166 15.0824 22.0055 14.31C21.144 13.5166 20.1557 12.7727 19.0507 12.1472C16.8508 10.8789 14.2584 10.0149 11.519 9.59338C8.78166 9.17569 5.89134 9.21384 3.03926 9.82225C5.58339 8.46048 8.48981 7.55836 11.5311 7.17119C14.5703 6.78975 17.7706 6.88129 20.9427 7.64609Z" fill="#00B4D8"/>
</svg>
