<?xml version="1.0" encoding="UTF-8"?>
<svg width="1265px" height="316px" viewBox="0 0 1265 316" version="1.1" xmlns="http://www.w3.org/2000/svg" xmlns:xlink="http://www.w3.org/1999/xlink">
    <title>Group</title>
    <defs>
        <linearGradient x1="10.5654936%" y1="48.415863%" x2="96.7786283%" y2="51.5604461%" id="linearGradient-1">
            <stop stop-color="#F4CB64" offset="0%"></stop>
            <stop stop-color="#9E7100" offset="26.9345763%"></stop>
            <stop stop-color="#F4CB64" offset="34.9726323%"></stop>
            <stop stop-color="#BE9225" offset="46.8190724%"></stop>
            <stop stop-color="#A37F27" offset="46.9043047%"></stop>
            <stop stop-color="#F4CB64" offset="60.6599565%"></stop>
            <stop stop-color="#A98220" offset="84.988185%"></stop>
            <stop stop-color="#F4CB64" offset="100%"></stop>
        </linearGradient>
    </defs>
    <g id="Page-1" stroke="none" stroke-width="1" fill="none" fill-rule="evenodd">
        <g id="Neon-Idea-1" transform="translate(-365.000000, -376.000000)">
            <g id="Group" transform="translate(365.000000, 376.781800)">
                <path d="M1169.33019,14.0477682 L1169.07481,180.3223 L1182.10092,180.3223 L1182.10092,14.0477682 L1264.34422,14.0477682 L1264.34422,0 L1087.0869,0 L1087.0869,14.0477682 L1169.33019,14.0477682 Z M638.30305,0 C671.677161,0 696.750289,6.98132776 713.522527,20.9439607 C730.294644,34.9065916 738.68072,57.9789865 738.68072,90.1611883 C738.68072,122.002772 730.464955,166.530016 713.522472,180.833212 C710.034583,183.77771 706.199306,177.52618 702.014057,171.024852 L701.53876,170.288266 L701.53876,170.288266 L701.060472,169.552431 C697.622022,164.288521 693.953077,159.30462 690.052257,159.378418 C685.46968,159.465123 681.015765,164.997047 676.661938,170.44451 L676.009611,171.260304 C672.100111,176.142977 668.270523,180.733283 664.500016,181.000085 C661.339272,181.223737 656.937409,176.154657 652.354408,170.86917 L651.698575,170.113176 L651.698575,170.113176 L651.040965,169.357527 C646.542787,164.202593 641.968193,159.302146 638.303237,159.378478 C634.996767,159.447346 631.465943,163.763232 627.805084,168.506913 L627.225987,169.258913 C627.129295,169.384653 627.032517,169.510551 626.935654,169.636535 L626.353469,170.392937 L626.353469,170.392937 L625.76933,171.148096 C621.771219,176.296497 617.641956,181.123893 613.500007,180.833212 C610.203606,181.148585 605.836441,175.447593 601.128328,169.843893 L600.498623,169.097847 C596.287975,164.135203 591.833563,159.464123 587.647959,159.378424 C580.016123,159.222189 570.15012,186.543626 563.338874,180.833222 C546.481549,166.700345 537.9253,122.343325 537.9253,90.1611883 C537.9253,58.3195751 546.396534,35.3322956 563.339003,21.1993672 C580.281474,7.06646566 605.269501,0 638.30305,0 Z M926.467824,0.00053158255 C933.282475,0.0111632222 938.502317,0.181268946 942.127544,0.510818093 C947.065545,0.510818093 952.854996,1.10678834 959.495679,2.29872199 C973.117751,5.02315067 982.823563,10.3868485 988.612909,18.3898163 C992.358979,23.3278217 994.657738,28.6063748 995.509085,34.2254755 C996.190135,37.8012757 996.530721,43.4203746 996.530721,51.0827939 L996.530721,51.0827939 L996.530721,53.1261106 L984.015494,53.1261106 L984.015494,51.0827939 C984.015494,45.2934238 983.760106,41.0365228 983.249237,38.3120873 C982.738365,34.2254665 981.205967,30.5645433 978.651822,27.3292944 C974.565173,21.5399171 968.264956,17.8364115 959.75117,16.2187845 C951.237392,14.6011799 941.191114,13.7923659 929.612318,13.7923586 L929.612318,13.7923586 L894.620551,13.7923586 C883.041758,13.7923659 872.995471,14.6011799 864.481697,16.2187845 C855.967919,17.8364115 849.582503,21.5399171 845.325668,27.3292944 C843.282289,30.0537046 841.962724,32.9483951 841.366761,36.0133783 C840.770799,39.0783417 840.472762,43.0798215 840.472762,48.0178341 L840.472762,48.0178341 L840.472762,51.8490392 C840.472762,59.5114567 842.175561,65.5136918 845.581051,69.855723 C848.98654,74.1977758 853.754354,77.3904452 859.884278,79.4337583 C864.822277,81.3068021 871.122494,82.4987325 878.784923,83.0095604 C883.119629,83.1701119 889.346507,83.2549653 897.465549,83.2641385 L927.313551,83.2649725 C934.294822,83.2649725 940.382205,83.3926749 945.575697,83.6480979 C950.769069,83.903519 955.834807,84.5420439 960.772808,85.5636941 C973.884103,88.2881152 983.589813,93.6518038 989.890038,101.654778 C993.806288,106.252228 996.275342,111.786194 997.29698,118.256681 C997.807849,122.343325 998.06323,126.60023 998.06323,131.027394 L998.06323,131.027394 L998.06323,135.369429 C998.06323,148.65096 994.615088,158.569552 987.71891,165.125187 C980.822731,171.680805 972.436692,175.852552 962.560696,177.640469 C952.684711,179.428352 940.935623,180.3223 927.313551,180.3223 L927.313551,180.3223 L899.042068,180.322034 C892.227513,180.316718 887.007571,180.23166 883.382338,180.066891 C877.93358,179.896631 872.144129,179.215518 866.014204,178.023562 C852.902903,175.639709 843.197197,170.276015 836.896982,161.9325 C833.150911,156.994504 830.852257,151.715934 830.000804,146.096812 C829.660331,144.734612 829.404841,143.202125 829.23455,141.499367 C829.064259,139.796612 828.979168,138.604682 828.979168,137.923577 L828.979168,137.923577 L828.979168,127.451603 L841.749889,127.451603 L841.749889,134.475481 C841.749889,137.114769 841.920179,139.626334 842.260653,142.010195 C843.282289,146.777925 844.814796,150.438861 846.858177,152.992995 C850.944829,158.782368 857.202391,162.4859 865.631075,164.103517 C874.059761,165.721144 884.233686,166.529945 896.153062,166.529945 L896.153062,166.529945 L933.188095,166.529945 C947.320927,166.529945 959.070015,164.954891 968.435241,161.804781 C977.800364,158.654682 983.249237,151.971343 984.781744,141.754786 C985.122219,138.008717 985.292503,135.028882 985.292503,132.815299 L985.292503,132.815299 L985.292503,128.473255 C985.292503,114.510611 978.822002,105.315707 965.881102,100.888542 C960.602522,99.0154979 954.217217,97.9087066 946.725072,97.5681662 C942.297842,97.2276023 935.571951,97.0573329 926.547301,97.0573329 L898.196331,97.0573329 C888.660922,97.0573329 880.402526,96.7593413 873.421255,96.1633851 C866.439876,95.5674181 859.458498,93.9072304 852.477229,91.1828201 C845.495959,88.45839 839.791708,84.2866336 835.364474,78.6675148 C831.618403,73.8997806 829.319749,68.3658046 828.468296,62.0656013 C827.957532,59.1709144 827.70215,54.8288815 827.70215,49.039497 L827.70215,49.039497 L827.70215,44.9528581 C827.70215,31.6713363 831.10764,21.7527533 837.918618,15.1971226 C844.729706,8.64149722 853.030647,4.46973937 862.82155,2.681849 C872.612346,0.893958694 884.403979,0 898.196331,0 L898.196331,0 Z M638.500026,16.5 C608.71716,16.5 586.188093,22.2046734 570.912854,33.6139962 C555.637618,45.0233407 548,63.5806971 548,89.2860515 C548,115.266306 555.714267,151.075199 570.912739,162.484502 C574.228869,164.97387 578.34811,159.687371 582.5196,154.316902 L583.215203,153.422366 C586.539723,149.157356 589.870922,145.110065 592.829675,145.1643 C601.037512,145.314774 610.391839,162.976714 616.137739,162.484495 C619.999099,162.727138 623.84823,158.552207 627.567052,154.241021 L628.203266,153.501424 C631.800994,149.311868 635.269386,145.224597 638.500195,145.164344 C645.511766,145.033584 656.216096,162.993209 662.119067,162.619209 C665.801823,162.385874 669.547095,158.056269 673.378762,153.767935 L674.076386,152.989614 C677.68575,148.980156 681.372631,145.228405 685.156825,145.164296 C693.335798,145.025746 700.384118,166.96951 706.317443,162.484495 C721.592692,150.937695 728.99998,114.991382 728.99998,89.2860515 C728.99998,63.305744 721.43914,44.6796749 706.317491,33.4078096 C691.195734,22.1359426 668.589941,16.5 638.500026,16.5 Z M436.385329,0 L436.385329,79.6891614 L285.691065,79.6891614 L285.691065,0 L273.17578,0 L273.17578,180.3223 L285.691065,180.3223 L285.691065,93.7369502 L436.385329,93.7369502 L436.385329,180.3223 L449.15604,180.3223 L449.15604,0 L436.385329,0 Z M184.40895,79.6891614 L60.2777166,79.6891614 L60.2777166,93.7369403 L170.105749,93.7369403 L170.105749,146.096813 C156.653952,159.54861 133.411263,166.274531 100.377708,166.274531 C80.7959711,166.274531 64.6623252,163.933212 51.9767579,159.250635 C39.2911907,154.568059 29.6280271,146.650212 22.9872642,135.497129 C16.3465006,124.344068 13.026119,109.232081 13.026119,90.1611506 C13.026119,71.0902332 16.3465006,55.9782319 22.9872642,44.8251504 C29.6280271,33.6720888 39.2911907,25.7116886 51.9767579,20.9439461 C64.6623197,16.1762325 80.7959655,13.7923649 100.377708,13.7923577 C115.702546,13.7923649 130.005746,15.5376965 143.287285,19.0283371 C156.568805,22.5190074 166.700232,28.7766502 173.681537,37.8012655 L174.703193,39.5891711 L184.40895,30.3942684 L183.387288,28.861775 C175.214012,18.1343995 163.550103,10.6422508 148.39556,6.38533362 C133.240999,2.12845156 117.235058,0 100.377708,0 C67.5144401,0 42.5690063,7.0238904 25.5414049,21.0716514 C8.51379923,35.1194268 0,58.0641176 0,89.9057402 C0,121.917639 8.4712334,144.947453 25.413698,158.995227 C42.3561615,173.042993 67.3441606,180.06688 100.377708,180.06688 C117.405315,180.06688 133.453843,177.938443 148.523263,173.681528 C163.592702,169.424632 175.214043,161.932489 183.387288,151.205094 L184.40895,149.928024 L184.40895,79.6891614 Z M601,89.618195 L627.470589,89.618195 C623.058824,64.2848617 618.647059,51.618195 614.235295,51.618195 C609.82353,51.618195 605.411765,64.2848617 601,89.618195 Z M649,89.618195 L675.470589,89.618195 C671.058824,64.2848617 666.647059,51.618195 662.235295,51.618195 C657.82353,51.618195 653.411765,64.2848617 649,89.618195 Z" id="GHOST-2" fill="url(#linearGradient-1)"></path>
                <path d="M955.285803,315.218144 L955.158113,295.359705 L973.037057,295.359705 L991.235309,315.218144 L995.768904,315.218144 L977.506779,295.359705 C980.997412,295.359705 983.98789,295.125574 986.478216,294.657313 C988.968486,294.189059 991.065018,293.103547 992.767763,291.400785 C994.470506,289.698027 995.321907,287.143885 995.321907,283.738366 L995.321907,281.758905 C995.321907,278.395954 994.48117,275.863099 992.799696,274.16034 C991.118227,272.457582 989.042966,271.36143 986.573969,270.871884 C984.104972,270.382344 981.146431,270.13757 977.698342,270.13757 L952.02928,270.13757 L952.02928,315.218144 L955.285803,315.218144 Z M955.15768,273.649472 L977.506376,273.649472 C980.613941,273.649472 983.136149,273.787821 985.073059,274.064522 C987.00997,274.341222 988.670115,275.075537 990.053607,276.267465 C991.437098,277.459399 992.12887,279.311151 992.12887,281.822723 L992.12887,283.099788 C992.12887,284.121444 992.107598,284.887689 992.064997,285.398517 C991.68187,288.080363 990.29838,289.836333 987.914524,290.666429 C985.53067,291.496526 982.508249,291.911576 978.847321,291.911576 L955.15768,291.911576 L955.15768,273.649472 Z M823.93848,315.218194 L864.74088,315.218194 L864.74088,311.706253 L827.067316,311.706253 L827.067316,293.571857 L855.865243,293.571857 L855.865243,290.059912 L827.067316,290.059912 L827.067316,273.713416 L864.804752,273.713416 L864.804752,270.201474 L823.93848,270.201474 L823.93848,315.218194 Z M712.323631,315.218144 C720.32659,315.218144 726.403304,313.419604 730.553804,309.822522 C734.704273,306.225444 736.77951,300.531841 736.77951,292.741709 C736.77951,286.441496 735.374747,281.43964 732.565194,277.736138 C730.479296,275.011721 727.605895,273.064186 723.944944,271.893538 C720.284017,270.722892 716.410254,270.13757 712.323631,270.13757 L691.82666,270.13757 L691.82666,315.218144 L712.323631,315.218144 Z M712.322259,273.585629 C715.983184,273.585629 719.431272,274.064533 722.666524,275.022332 C725.901749,275.980134 728.370747,277.587114 730.07352,279.843272 C732.372251,282.908241 733.521605,287.186427 733.521605,292.677826 C733.521605,298.169226 732.372251,302.447411 730.07352,305.512379 C728.370747,307.811106 725.901749,309.428729 722.666524,310.365247 C719.431272,311.301765 715.983184,311.770024 712.322259,311.770024 L694.9541,311.770024 L694.9541,273.585629 L712.322259,273.585629 Z M579.124151,270.201474 L553.71044,315.218194 L557.350068,315.218194 L567.438931,297.403065 L590.873187,297.403065 L600.898179,315.218194 L604.66555,315.218194 L579.124151,270.201474 Z M589.08551,294.14649 L569.22705,294.210342 L579.124371,276.650631 L589.08551,294.14649 Z M426.003596,315.218144 L425.875892,295.359705 L443.754875,295.359705 L461.953127,315.218144 L466.486725,315.218144 L448.224627,295.359705 C451.715278,295.359705 454.705757,295.125574 457.196043,294.657313 C459.686328,294.189059 461.782849,293.103547 463.485607,291.400785 C465.188367,289.698027 466.039754,287.143885 466.039754,283.738366 L466.039754,281.758905 C466.039754,278.395954 465.199016,275.863099 463.517533,274.16034 C461.836058,272.457582 459.760826,271.36143 457.291825,270.871884 C454.822812,270.382344 451.864267,270.13757 448.416179,270.13757 L422.74707,270.13757 L422.74707,315.218144 L426.003596,315.218144 Z M425.87548,273.649472 L448.224214,273.649472 C451.331734,273.649472 453.853957,273.787821 455.790849,274.064522 C457.72773,274.341222 459.387917,275.075537 460.77142,276.267465 C462.154911,277.459399 462.846656,279.311151 462.846656,281.822723 L462.846656,283.099788 C462.846656,284.121444 462.825368,284.887689 462.782796,285.398517 C462.399682,288.080363 461.016193,289.836333 458.632326,290.666429 C456.248461,291.496526 453.226057,291.911576 449.565131,291.911576 L425.87548,291.911576 L425.87548,273.649472 Z M311.76981,273.649512 L311.705956,315.218144 L314.962486,315.218144 L314.962486,273.649512 L335.52331,273.649512 L335.52331,270.13757 L291.20898,270.13757 L291.20898,273.649512 L311.76981,273.649512 Z" id="TRADER" fill="#000000" fill-rule="nonzero"></path>
            </g>
        </g>
    </g>
</svg>