<svg width="1000" height="194" viewBox="0 0 1000 194" fill="none" xmlns="http://www.w3.org/2000/svg">
<path d="M461.231 0.0898438V131.254L354.387 0.0898438H324.814V193.878H360.475V62.7141L467.32 193.878H496.926V0.0898438H461.231Z" fill="#FBFBFB"/>
<path d="M583.89 0.0898438H547.947V193.779H583.89V0.0898438Z" fill="#FBFBFB"/>
<path d="M998.276 0.0896843H962.858L905.557 94.3727L848.848 0.0896843H810.403L886.491 126.035V193.878H922.431V125.338L998.276 0.0896843Z" fill="#FBFBFB"/>
<path d="M634.911 0H776.297V30.1299H670.854V89.1125H764.397V119.52H670.854V193.688H634.911V0Z" fill="#FBFBFB"/>
<path fill-rule="evenodd" clip-rule="evenodd" d="M123.677 80.5508L114.285 93.5239L126.318 110.106H252.922V80.5508H123.677Z" fill="#FBFBFB"/>
<path fill-rule="evenodd" clip-rule="evenodd" d="M123.677 80.5508L114.285 93.5239L126.318 110.106H252.922V80.5508H123.677Z" fill="url(#paint0_linear_1153_69337)"/>
<path d="M145.524 193.673H273.794V163.531H165.135L114.261 93.5338L160.204 30.14H273.794V0H143.032L94.0635 68.9105L44.54 0H3.87115L71.9314 94.9142L0 193.673H40.9448L92.957 120.065L145.524 193.673Z" fill="#FBFBFB"/>
<defs>
<linearGradient id="paint0_linear_1153_69337" x1="114.285" y1="95.3284" x2="255.993" y2="95.3285" gradientUnits="userSpaceOnUse">
<stop stop-color="#FD0092"/>
<stop offset="1" stop-color="#00E6FE"/>
</linearGradient>
</defs>
</svg>
