<svg width="1000" height="194" viewBox="0 0 1000 194" fill="none" xmlns="http://www.w3.org/2000/svg">
<path d="M461.645 0.0898438V131.254L354.8 0.0898438H325.228V193.878H360.889V62.7141L467.733 193.878H497.34V0.0898438H461.645Z" fill="#1B314F"/>
<path d="M584.304 0.0898438H548.361V193.779H584.304V0.0898438Z" fill="#1B314F"/>
<path d="M998.69 0.0896843H963.272L905.971 94.3727L849.262 0.0896843H810.817L886.905 126.035V193.878H922.845V125.338L998.69 0.0896843Z" fill="#1B314F"/>
<path d="M635.325 0H776.711V30.1299H671.267V89.1125H764.811V119.52H671.267V193.688H635.325V0Z" fill="#1B314F"/>
<path fill-rule="evenodd" clip-rule="evenodd" d="M124.09 80.5508L114.699 93.5239L126.732 110.106H253.335V80.5508H124.09Z" fill="#1B314F"/>
<path fill-rule="evenodd" clip-rule="evenodd" d="M124.09 80.5508L114.699 93.5239L126.732 110.106H253.335V80.5508H124.09Z" fill="url(#paint0_linear_1153_69357)"/>
<path d="M145.938 193.673H274.207V163.531H165.549L114.675 93.5338L160.618 30.14H274.207V0H143.446L94.477 68.9105L44.9536 0H4.28472L72.345 94.9142L0.413574 193.673H41.3583L93.3706 120.065L145.938 193.673Z" fill="#1B314F"/>
<defs>
<linearGradient id="paint0_linear_1153_69357" x1="114.699" y1="95.3284" x2="256.406" y2="95.3285" gradientUnits="userSpaceOnUse">
<stop stop-color="#FD0092"/>
<stop offset="1" stop-color="#00E6FE"/>
</linearGradient>
</defs>
</svg>
