<?xml version="1.0" encoding="utf-8"?>
<!-- Generator: Adobe Illustrator 24.0.1, SVG Export Plug-In . SVG Version: 6.00 Build 0)  -->
<svg version="1.1" id="Layer_1" xmlns="http://www.w3.org/2000/svg" xmlns:xlink="http://www.w3.org/1999/xlink" x="0px" y="0px"
	 viewBox="0 0 3000 3000" style="enable-background:new 0 0 3000 3000;" xml:space="preserve">
<style type="text/css">
	.st0{fill:#1CAB4B;}
	.st1{fill:#F4EA12;}
	.st2{fill:#8BC63F;}
	.st3{fill:#36B798;}
	.st4{fill:#06A1C7;}
	.st5{fill:#1567B0;}
	.st6{fill:#2A388D;}
	.st7{fill:#F4901F;}
	.st8{fill:#FFC614;}
	.st9{fill:#3B328D;}
	.st10{fill:#62308E;}
	.st11{fill:#7E2A8D;}
	.st12{fill:#C21B7D;}
	.st13{fill:#C21E58;}
	.st14{fill:#EF6723;}
	.st15{fill:#EA2A2D;}
	.st16{fill:#FFFFFF;}
	.st17{fill:#010101;}
	.st18{fill:#ED1065;}
	.st19{fill:#3C96B6;}
</style>
<g>
	<path class="st0" d="M1521.4,1075.2l5.3,5.5l-25.4-0.4c-2.6-0.1-5.1-0.3-7.6-0.8c3.8,6.9,5.9,14.9,5.8,23.4l-0.3,16.3l-14.3-14.3
		c-4-4-7.1-8.5-9.3-13.4c-2,3.6-4.6,7-7.7,10l-6.6,6.6l0.4-23.1c0-1.4,0.1-2.7,0.3-4c0.3-3,0.9-5.8,1.7-8.5c0.6-2.3,1.4-4.4,2.4-6.5
		c0.3-0.6,0.5-1.1,0.9-1.7c1-1.9,2.1-3.8,3.3-5.6c1.3-1.8,2.8-3.6,4.4-5.1c0-0.1,0.1-0.1,0.1-0.2c1-1,2.1-2.1,3.2-3
		c4.5-3.8,9.6-6.9,15.2-8.7c5.1-1.8,10.5-2.7,16.1-2.6l20.7,0.3l-21,21c-1.3,1.3-2.7,2.5-4.2,3.7
		C1510.9,1066.5,1516.6,1070.2,1521.4,1075.2z"/>
	<path class="st0" d="M1965.1,1548.3l-2.8,157c-0.4,25.8-21.7,46.4-47.6,46l-417.2-7.4l312.8-301.9c2-1.9,3.8-4,5.4-6.3l101.3,101.3
		C1930.1,1550,1948.9,1553.8,1965.1,1548.3z"/>
	<path class="st1" d="M2278.7,1241.6L1983.2,1537c-5.3,5.3-11.5,9.1-18.2,11.3l8-454.2c0-1.8,0-3.7-0.3-5.5l139.7,2.5
		c22.3,0.4,41.2-14.8,46.3-35.6l119.9,119.9C2297,1193.7,2297,1223.4,2278.7,1241.6z"/>
	<path class="st2" d="M1973.1,1094.1l-8,454.2c-16.2,5.5-35,1.7-48-11.3l-417.9-417.9l0.3-16.3c0.2-8.5-1.9-16.5-5.8-23.4
		c2.4,0.5,5,0.7,7.6,0.8l25.4,0.4l-5.3-5.5c-4.8-5-10.5-8.6-16.5-11c1.5-1.1,2.9-2.4,4.2-3.7l21-21l397.1,7.1
		c23.9,0.4,43.5,18.8,45.6,42.1C1973.1,1090.5,1973.1,1092.3,1973.1,1094.1z"/>
	<path class="st1" d="M1521.4,1075.2l5.3,5.5l-25.4-0.4c-2.6-0.1-5.1-0.3-7.6-0.8c3.8,6.9,5.9,14.9,5.8,23.4l-0.3,16.3l-14.3-14.3
		c-4-4-7.1-8.5-9.3-13.4c-2.4-4.7-3.7-9.9-4.2-15c-0.1-0.8-0.2-1.6-0.2-2.4c-0.2-1.8-0.2-3.7,0-5.4c0.1-1.7,0.3-3.3,0.7-5
		c0.2-1.3,0.4-2.6,0.8-3.8c0.5-2.1,1.2-4.2,2-6.2c0-0.1,0.1-0.1,0.1-0.2c0.7-1.6,1.5-3.1,2.4-4.7c2-3.6,4.6-7,7.7-10l8.6-8.6v6.8
		c0,1.7-0.1,3.2-0.3,4.9c5.1-1.8,10.5-2.7,16.1-2.6l20.7,0.3l-21,21c-1.3,1.3-2.7,2.5-4.2,3.7
		C1510.9,1066.5,1516.6,1070.2,1521.4,1075.2z"/>
	<path class="st3" d="M1815.8,1435.7c-1.6,2.3-3.4,4.4-5.4,6.3l-312.8,301.9h-0.6c-25.8-0.4-46.4-21.8-46-47.7l2.3-130.4l8.1-457.7
		l6.6-6.6c3.1-3.1,5.7-6.5,7.7-10c2.2,4.9,5.2,9.3,9.3,13.4L1815.8,1435.7z"/>
	<path class="st4" d="M1497,1743.9h0.6l-127.1,122.6c-18.6,17.9-48.2,17.4-66.2-1.2l-290.2-300.7c-1.7-1.8-3.3-3.8-4.7-5.8
		l435.1,7.7c3,0.1,5.9-0.2,8.7-0.7l-2.3,130.4C1450.5,1722,1471.1,1743.4,1497,1743.9z"/>
	<path class="st4" d="M1501.3,1080.2c-2.6-0.1-5.1-0.3-7.6-0.8c3.8,6.9,5.9,14.9,5.8,23.4l-0.3,16.3l-14.3-14.3
		c-4-4-7.1-8.5-9.3-13.4c-2,3.6-4.6,7-7.7,10l-6.6,6.6l0.4-23.1c0-1.4,0.1-2.7,0.3-4c-4.8,1.7-9.9,2.6-15.3,2.6h-1.6l10-9.7
		c1.1-1,2.3-2.1,3.5-3.1c2.4-1.9,4.9-3.5,7.5-4.8c0.5-0.3,1-0.6,1.7-0.8c1.3-0.7,2.7-1.2,4.1-1.7c1.7-0.7,3.3-1.1,5.1-1.6
		c1.3-0.3,2.6-0.5,4-0.7c1.9-0.3,3.8-0.4,5.8-0.5c6.1-0.1,12.3,1,18.1,3.3c6,2.4,11.7,6,16.5,11l5.3,5.5L1501.3,1080.2z"/>
	<path class="st5" d="M1462,1081c-0.2,1.3-0.3,2.6-0.3,4l-0.4,23.1l-8.1,457.7c-2.8,0.5-5.8,0.8-8.7,0.7l-435.1-7.7
		c-12.9-18.5-10.8-44.2,5.9-60.4l98.7-95.3l331.1-319.5h1.6C1452.1,1083.6,1457.2,1082.8,1462,1081z"/>
	<path class="st6" d="M1106.4,1397c2.4,2.4,5,4.5,7.7,6.1l-98.7,95.3c-16.8,16.1-18.9,41.9-5.9,60.4l-176.2-3.1
		c-25.8-0.5-46.3-21.8-45.9-47.7l7.4-417.8c0-1.6,0.1-3.1,0.3-4.5L1106.4,1397z"/>
	<path class="st6" d="M1499.5,1102.8l-0.3,16.3l-14.3-14.3c-4-4-7.1-8.5-9.3-13.4c-2,3.6-4.6,7-7.7,10l-6.6,6.6l0.4-23.1
		c0-1.4,0.1-2.7,0.3-4c-4.8,1.7-9.9,2.6-15.3,2.6h-1.6l10-9.7c1.1-1,2.3-2.1,3.5-3.1c-5.8-2.3-11.2-5.8-15.8-10.4l-5.5-5.5l16.1,0.3
		c2.6,0.1,5.2,0.3,7.7,0.8c3.2,0.6,6.3,1.5,9.2,2.7c0.8,0.3,1.6,0.6,2.4,1c1.5,0.6,3,1.4,4.3,2.3c1.7,1,3.1,2,4.5,3.1
		c0.5,0.4,1,0.8,1.5,1.2c2.2,1.8,4.1,3.8,5.8,5.9c1.9,2.2,3.5,4.5,4.9,7.1C1497.6,1086.4,1499.7,1094.4,1499.5,1102.8z"/>
	<path class="st7" d="M1521.4,1075.2l5.3,5.5l-25.4-0.4c-2.6-0.1-5.1-0.3-7.6-0.8c-4.5-0.8-8.6-2.2-12.6-4.2
		c-0.7-0.3-1.4-0.7-2.1-1.1h-0.1c-0.8-0.4-1.5-0.9-2.2-1.4c-1.9-1.2-3.8-2.6-5.5-4.1c-1.2-1-2.4-2.2-3.4-3.3c-0.3-0.3-0.6-0.6-0.8-1
		c-2.3-2.5-4.3-5.3-5.8-8.3c-3.8-6.9-6-14.9-5.8-23.4l0.2-9.6l12.4,12.4c4,4,7.1,8.5,9.3,13.3c2-3.6,4.6-7,7.7-10l8.6-8.6v6.8
		c0,1.7-0.1,3.2-0.3,4.9c5.1-1.8,10.5-2.7,16.1-2.6l20.7,0.3l-21,21c-1.3,1.3-2.7,2.5-4.2,3.7
		C1510.9,1066.5,1516.6,1070.2,1521.4,1075.2z"/>
	<path class="st8" d="M2158.8,1055.5c-5.1,20.8-24,36-46.3,35.6l-139.7-2.5c-2.2-23.3-21.7-41.6-45.6-42.1l-397.1-7.1l304.8-304.8
		c4.2,2.1,8.1,5,11.6,8.5L2158.8,1055.5z"/>
	<path class="st7" d="M2167.6,627.5l-7.4,417.8c-0.1,3.6-0.5,7-1.3,10.3l-312.3-312.3c-3.5-3.5-7.4-6.4-11.6-8.5l106.5-106.5
		c13.9-13.9,17.2-34.5,9.9-51.5l170.4,3.1C2147.5,580.3,2168.1,601.6,2167.6,627.5z"/>
	<path class="st9" d="M1458.7,1070.9c-1.2,1-2.4,2-3.5,3.1l-10,9.7l-331.1,319.5c-2.7-1.7-5.3-3.8-7.7-6.1l-311.3-311.3
		c2.6-23.7,23-41.8,47.3-41.4l140.9,2.5l454.2,8.1l5.5,5.5C1447.6,1065.1,1453,1068.6,1458.7,1070.9z"/>
	<path class="st10" d="M982.1,1036.9c0,3.5,0.3,6.8,1.1,10l-140.9-2.5c-24.3-0.4-44.7,17.7-47.3,41.4l-121-121
		c-18.3-18.2-18.3-47.9,0-66.2l295.4-295.4c3.8-3.8,8-6.8,12.6-9V1036.9z"/>
	<path class="st10" d="M1481.7,1067.9c0,1.9-0.1,3.9-0.3,5.9c0,0.4-0.1,1-0.2,1.4c-0.8,5.6-2.6,11.2-5.5,16.2c-2,3.6-4.6,7-7.7,10
		l-6.6,6.6l0.4-23.1c0-1.4,0.1-2.7,0.3-4c-4.8,1.7-9.9,2.6-15.3,2.6h-1.6l10-9.7c1.1-1,2.3-2.1,3.5-3.1c-5.8-2.3-11.2-5.8-15.8-10.4
		l-5.5-5.5l16.1,0.3c2.6,0.1,5.2,0.3,7.7,0.8c-3.8-6.9-6-14.9-5.8-23.4l0.2-9.6l12.4,12.4c4,4,7.1,8.5,9.3,13.3
		c0.3,0.5,0.6,1.1,0.9,1.7c1.5,3.5,2.4,7.2,3,10.9c0.3,1.3,0.4,2.6,0.5,3.8C1481.6,1066.1,1481.7,1067.1,1481.7,1067.9z"/>
	<path class="st11" d="M1461.3,1056.1c-2.4-0.4-5.1-0.7-7.7-0.8l-16.1-0.3l-454.2-8.1c-0.8-3.2-1.1-6.5-1.1-10V594.2
		c17.5-8.6,39.1-5.6,53.6,9l104.7,104.7l315.1,315.1l-0.2,9.6C1455.2,1041.1,1457.4,1049.2,1461.3,1056.1z"/>
	<path class="st12" d="M1464.1,382.2l-316.7,316.7c-2.8,2.8-5.1,5.8-7,9.1l-104.7-104.7c-14.5-14.6-36.1-17.5-53.6-9V425.6
		c0-25.8,20.9-46.8,46.8-46.8h417.9C1452.9,378.8,1458.7,380.1,1464.1,382.2z"/>
	<path class="st12" d="M1493.6,1030.1v6.8c0,1.7-0.1,3.2-0.3,4.9c-0.7,7-3,13.4-6.5,19.1c-1,2-2.4,3.8-3.8,5.6c-0.5,0.5-1,1-1.4,1.5
		c-1.5,1.7-3.1,3.3-4.9,4.8c-0.6,0.5-1.2,1-1.8,1.5c-1.1,0.8-2.3,1.7-3.5,2.3c-2.9,1.9-6.1,3.4-9.4,4.5c-4.8,1.7-9.9,2.6-15.3,2.6
		h-1.6l10-9.7c1.1-1,2.3-2.1,3.5-3.1c-5.8-2.3-11.2-5.8-15.8-10.4l-5.5-5.5l16.1,0.3c2.6,0.1,5.2,0.3,7.7,0.8
		c-3.8-6.9-6-14.9-5.8-23.4l0.2-9.6l12.4,12.4c4,4,7.1,8.5,9.3,13.3c2-3.6,4.6-7,7.7-10L1493.6,1030.1z"/>
	<path class="st13" d="M1493.6,425.6v604.4l-8.6,8.6c-3.1,3.1-5.7,6.5-7.7,10c-2.2-4.8-5.2-9.3-9.3-13.3l-12.4-12.4l-315.1-315.1
		c1.8-3.2,4.2-6.3,7-9.1l316.7-316.7C1481.3,389,1493.6,405.9,1493.6,425.6z"/>
	<path class="st14" d="M1941.3,628.3l-411.2,411.2l-20.7-0.3c-5.7-0.1-11.1,0.8-16.1,2.6c0.2-1.7,0.3-3.2,0.3-4.9v-465
		c5.2-2,11-3,16.9-2.9l440.8,7.8C1958.5,593.8,1955.2,614.4,1941.3,628.3z"/>
	<path class="st15" d="M1530.1,1039.5l-21,21c-1.3,1.3-2.7,2.5-4.2,3.7c-4.9,3.8-10.3,6.5-16.1,8.2c-2.4,0.7-5,1.2-7.5,1.5
		c-0.8,0.1-1.5,0.2-2.3,0.3h-0.1c-1.4,0.1-2.7,0.1-4,0.1c-1.2,0-2.4-0.1-3.7-0.2c-2.5-0.3-5.1-0.8-7.5-1.5c-1.7-0.4-3.4-1-5.1-1.7
		c-5.8-2.3-11.2-5.8-15.8-10.4l-5.5-5.5l16.1,0.3c2.6,0.1,5.2,0.3,7.7,0.8c-3.8-6.9-6-14.9-5.8-23.4l0.2-9.6l12.4,12.4
		c4,4,7.1,8.5,9.3,13.3c2-3.6,4.6-7,7.7-10l8.6-8.6v6.8c0,1.7-0.1,3.2-0.3,4.9c5.1-1.8,10.5-2.7,16.1-2.6L1530.1,1039.5z"/>
	<path class="st15" d="M1464.1,382.2l115.5-115.5c18.2-18.2,47.9-18.2,66.2,0l295.5,295.5c4.4,4.4,7.7,9.3,9.9,14.7l-440.8-7.8
		c-5.9-0.1-11.7,0.9-16.9,2.9V425.6C1493.6,405.9,1481.3,389,1464.1,382.2z"/>
	<g>
		<path class="st16" d="M1476.3,1384c-173.5,0-314.7-141.2-314.7-314.7s141.2-314.7,314.7-314.7S1791,895.8,1791,1069.3
			S1649.8,1384,1476.3,1384z M1476.3,786.9c-155.7,0-282.4,126.7-282.4,282.4s126.7,282.4,282.4,282.4
			c155.7,0,282.4-126.7,282.4-282.4S1632,786.9,1476.3,786.9z"/>
	</g>
	<circle class="st16" cx="1476.3" cy="1069.3" r="241.8"/>
	<path class="st17" d="M1535.4,1168.5H1417V1083h114.8c5.3,0,9.6-4.3,9.6-9.6s-4.3-9.6-9.6-9.6H1417v-82.1l115.9-1.6
		c5.3-0.1,9.5-4.4,9.5-9.7c-0.1-5.3-4.4-9.6-9.7-9.5l-116.6,1.6c-10,0.1-18.2,8.4-18.2,18.4v188.4c0,10.2,8.3,18.4,18.4,18.4h119.1
		c5.3,0,9.6-4.3,9.6-9.6C1545,1172.8,1540.7,1168.5,1535.4,1168.5z"/>
	<g>
		<path class="st18" d="M943.5,2616.9c16.7,0,28.8,3.5,36.4,10.4c7.6,6.9,11.4,16.5,11.4,28.8c0,7.3-1.6,14.2-4.7,20.6
			c-3.1,6.4-8.4,11.6-15.7,15.5c-7.4,3.9-17.4,5.8-29.9,5.8h-12.8v47.3h-23v-128.4H943.5z M942.1,2635.9h-13.8v43h10.4
			c9.3,0,16.6-1.7,21.7-5.1c5.1-3.4,7.6-9,7.6-16.8c0-7.1-2.1-12.3-6.3-15.8C957.5,2637.7,951,2635.9,942.1,2635.9z"/>
		<path class="st18" d="M1085.4,2616.9c16.9,0,29.4,3.1,37.5,9.3c8.1,6.2,12.1,15.7,12.1,28.4c0,6.2-1.2,11.6-3.5,16
			c-2.3,4.4-5.4,8.1-9.1,11.1c-3.7,2.9-7.7,5.3-12,7.1l36.9,56.5h-25.9l-30.7-50.7h-18.7v50.7h-23v-128.4H1085.4z M1084,2636.1h-12
			v39.6h12.8c9.5,0,16.3-1.7,20.6-5.1c4.3-3.4,6.4-8.5,6.4-15.2c0-7-2.2-11.9-6.7-14.8C1100.4,2637.6,1093.4,2636.1,1084,2636.1z"/>
		<path class="st18" d="M1312.2,2680.9c0,13.3-2.2,24.9-6.6,34.8c-4.4,9.9-11.1,17.6-20.1,23.1c-9,5.5-20.3,8.3-33.8,8.3
			c-13.7,0-25-2.8-33.9-8.3c-8.9-5.5-15.6-13.2-20-23.2c-4.4-10-6.6-21.6-6.6-34.9c0-13.2,2.2-24.7,6.6-34.6c4.4-9.9,11-17.6,20-23
			s20.3-8.2,34.1-8.2c13.5,0,24.8,2.7,33.7,8.2c8.9,5.5,15.6,13.1,20,23C1310,2656,1312.2,2667.6,1312.2,2680.9z M1215.6,2680.9
			c0,14.5,2.9,25.9,8.6,34.2c5.8,8.3,14.9,12.4,27.5,12.4c12.7,0,21.9-4.1,27.6-12.4c5.7-8.3,8.5-19.7,8.5-34.2
			c0-14.5-2.8-25.9-8.5-34.2c-5.6-8.3-14.8-12.4-27.5-12.4c-12.6,0-21.8,4.1-27.6,12.4C1218.5,2655,1215.6,2666.4,1215.6,2680.9z"/>
		<path class="st18" d="M1412.5,2745.3h-23v-109h-36.9v-19.4h96.7v19.4h-36.9V2745.3z"/>
		<path class="st18" d="M1612.5,2680.9c0,13.3-2.2,24.9-6.6,34.8c-4.4,9.9-11.1,17.6-20,23.1c-9,5.5-20.3,8.3-33.8,8.3
			c-13.7,0-25-2.8-33.9-8.3c-8.9-5.5-15.6-13.2-20-23.2c-4.4-10-6.6-21.6-6.6-34.9c0-13.2,2.2-24.7,6.6-34.6c4.4-9.9,11-17.6,20-23
			s20.3-8.2,34.1-8.2c13.6,0,24.8,2.7,33.7,8.2c8.9,5.5,15.6,13.1,20,23C1610.3,2656,1612.5,2667.6,1612.5,2680.9z M1515.9,2680.9
			c0,14.5,2.9,25.9,8.6,34.2c5.8,8.3,14.9,12.4,27.5,12.4c12.7,0,21.9-4.1,27.6-12.4c5.7-8.3,8.5-19.7,8.5-34.2
			c0-14.5-2.8-25.9-8.5-34.2c-5.6-8.3-14.8-12.4-27.5-12.4c-12.6,0-21.8,4.1-27.6,12.4C1518.8,2655,1515.9,2666.4,1515.9,2680.9z"/>
		<path class="st18" d="M1726.9,2634.5c-11.8,0-20.8,4.2-27.2,12.6c-6.4,8.4-9.6,19.8-9.6,34.2c0,14.5,3,25.9,9,34.1
			c6,8.2,15.2,12.3,27.7,12.3c5.4,0,10.7-0.6,15.8-1.7c5.2-1.1,10.6-2.7,16.2-4.6v19.6c-5.3,2.2-10.6,3.7-15.9,4.7
			c-5.3,1-11.5,1.4-18.4,1.4c-13.2,0-24.1-2.7-32.7-8.2c-8.6-5.5-15-13.1-19.2-23c-4.2-9.9-6.3-21.5-6.3-34.8
			c0-12.9,2.3-24.4,7-34.3c4.7-9.9,11.5-17.7,20.6-23.3c9.1-5.6,20.1-8.4,33.2-8.4c6.5,0,12.9,0.8,19.2,2.2
			c6.3,1.5,12.2,3.6,17.7,6.2l-7.9,18.9c-4.6-2-9.3-3.9-14.1-5.5C1736.8,2635.3,1731.9,2634.5,1726.9,2634.5z"/>
		<path class="st18" d="M1929.9,2680.9c0,13.3-2.2,24.9-6.6,34.8c-4.4,9.9-11.1,17.6-20.1,23.1c-9,5.5-20.3,8.3-33.8,8.3
			c-13.7,0-25-2.8-33.9-8.3c-8.9-5.5-15.6-13.2-20-23.2c-4.4-10-6.6-21.6-6.6-34.9c0-13.2,2.2-24.7,6.6-34.6c4.4-9.9,11-17.6,20-23
			c8.9-5.5,20.3-8.2,34.1-8.2c13.5,0,24.8,2.7,33.7,8.2c8.9,5.5,15.6,13.1,20,23C1927.7,2656,1929.9,2667.6,1929.9,2680.9z
			 M1833.3,2680.9c0,14.5,2.9,25.9,8.6,34.2c5.8,8.3,14.9,12.4,27.5,12.4c12.7,0,21.9-4.1,27.6-12.4c5.7-8.3,8.5-19.7,8.5-34.2
			c0-14.5-2.8-25.9-8.4-34.2c-5.6-8.3-14.8-12.4-27.5-12.4c-12.6,0-21.8,4.1-27.6,12.4C1836.2,2655,1833.3,2666.4,1833.3,2680.9z"/>
		<path class="st18" d="M1989.6,2745.3v-128.4h23v109h53.6v19.4H1989.6z"/>
	</g>
	<g>
		<path class="st19" d="M727.3,2065.5v65.4H608.9v66.8h115.5v65.4H608.9v72.1h117.9v67.3h-191v-337H727.3z"/>
		<path class="st19" d="M903.9,2065.5l65.4,193.8c4.8,14.8,9.1,29.6,12.9,44.4c2.4,8.6,3.8,17.2,5.3,25.8
			c5.3-19.6,10.5-38.7,16.2-57.8c4.3-13.4,8.6-25.8,12.9-38.7l56.3-167.6h79.3l-131.8,337h-70.7l-126-337H903.9z"/>
		<path class="st19" d="M1439.1,2061.7c18.6,4.3,62.1,16.7,96.4,57.3c14.3,17.2,40.6,57.3,40.6,117.4c0,13.4-1,41.1-14.3,73
			c-28.6,69.7-92.1,101.7-164.7,101.7c-17.2,0-68.7-1.4-112.7-33.9c-23.9-17.7-67.3-60.2-67.3-138.4c0-12.9,1-43,14.3-75.9
			c27.2-67.8,92.1-106,163.8-106C1401.9,2056.9,1420,2057.4,1439.1,2061.7z M1331.2,2149.6c-12.9,10-41.5,38.2-41.1,85.5
			c0,7.6,0.5,24.3,8.6,43.4c17.2,42.5,57.8,64,102.2,64c33.4,0,52-11.9,63-21c25.8-21,38.7-53.9,38.7-86.4
			c0-12.9-1.9-43.9-25.3-71.6c-9.5-11.5-36.8-36.8-79.7-36.3C1387.1,2127.1,1356.5,2129,1331.2,2149.6z"/>
		<path class="st19" d="M1745.6,2065.5v270.7h115.1v66.4h-188.6v-337H1745.6z"/>
		<path class="st19" d="M2030.7,2402.6h-73.5v-337h73.5V2402.6z"/>
		<path class="st19" d="M2325.7,2065.5l138.4,337h-79.2l-26.3-68.3h-139.9l-24.8,68.3h-78.3l132.2-337H2325.7z M2334.3,2270.8
			c-8.1-22.9-16.7-45.8-24.8-68.3c-15.3-43.4-18.6-54.4-22-77.8c-1,6.7-1.9,13.8-3.3,20.5c-3.8,16.2-13.4,43.4-19.1,59.7
			c-7.6,22-15.3,43.9-23.4,65.9H2334.3z"/>
	</g>
</g>
</svg>
