<?xml version="1.0" encoding="UTF-8"?>
<!-- Created with Inkscape (http://www.inkscape.org/) -->
<svg width="1122.5" height="793.71" version="1.1" viewBox="0 0 1122.5 793.71" xmlns="http://www.w3.org/2000/svg">
 <defs>
  <clipPath id="clipPath20">
   <path d="M 0,595.28 H 841.89 V 0 H 0 Z"/>
  </clipPath>
 </defs>
 <g transform="matrix(1.3333 0 0 -1.3333 0 793.71)">
  <path d="m0 0h841.89v595.28h-841.89z" fill="#323e48"/>
  <g clip-path="url(#clipPath20)">
   <g transform="translate(473.57 353.35)">
    <path d="m0 0c-0.197 5.979-3.028 10.726-8.161 13.974-12.388 7.844-24.797 15.658-37.166 23.533-5.883 3.746-11.639 3.569-17.45-0.141-6.698-4.277-13.442-8.477-20.161-12.718-5.682-3.586-11.375-7.149-17.025-10.786-4.443-2.859-6.841-6.933-7.773-11.864-0.202-0.391-0.318-0.921-0.322-1.626 0-0.255-2e-3 -0.539-4e-3 -0.849-4e-3 -0.127-4e-3 -0.252-1e-3 -0.373-0.041-9.851-0.161-41.985 0.048-49.701 0.165-6.124 2.942-11.064 8.175-14.397 12.315-7.845 24.692-15.594 37.012-23.432 6.138-3.905 12.13-3.744 18.157 0.226 3.291 2.167 6.674 4.194 10.002 6.305 8.999 5.71 18.043 11.354 26.966 17.18 4.977 3.248 7.439 8.075 7.855 14 0.03 0.413 0.013 0.787-0.04 1.136 0.034 8.65 0.154 41.428-0.112 49.533" fill="#00ffb2"/>
   </g>
   <g transform="translate(458.32 312.05)">
    <path d="m0 0c-3.998 2.47-20.542 12.842-35.079 21.964l16.485-27.199-0.094-0.057c0.013-8e-3 0.038-0.024 0.048-0.033-0.469-0.394-0.699-0.637-0.973-0.81-5.204-3.293-10.416-6.572-15.62-9.86-2.427-1.534-4.792-1.386-7.179 0.132-6.453 4.103-12.914 8.2-19.398 12.255-2.657 1.661-3.883 4.027-3.875 7.106 4e-3 1.586-0.021 3.174-5e-3 4.76 9e-3 0.838-0.268 1.478-1.001 1.938-3.341 2.096-6.655 4.234-10.011 6.305-1.447 0.895-2.284 0.41-2.291-1.317-0.027-6.01-0.131-12.024 0.03-18.032 0.124-4.558 2.192-8.237 6.087-10.718 9.169-5.84 18.384-11.609 27.555-17.446 4.569-2.906 9.032-2.786 13.518 0.168 2.451 1.615 4.969 3.123 7.447 4.696 6.7 4.251 13.432 8.451 20.077 12.791 3.705 2.418 5.538 6.01 5.847 10.421 0.097 1.371-0.399 2.214-1.568 2.936" fill="#323e48"/>
   </g>
   <g transform="translate(399.52 349.12)">
    <path d="m0 0c0.493 0.398 0.765 0.667 1.08 0.867 5.237 3.327 10.461 6.673 15.727 9.954 2.255 1.405 4.592 1.293 6.823-0.115 6.589-4.158 13.16-8.346 19.741-12.518 2.433-1.541 3.657-3.741 3.669-6.619 6e-3 -1.683 0.027-3.366 0.017-5.049-6e-3 -0.886 0.289-1.582 1.061-2.07 3.336-2.104 6.649-4.244 10.004-6.317 1.393-0.86 2.209-0.406 2.216 1.268 0.022 6.108 0.116 12.219-0.083 18.32-0.147 4.45-2.254 7.985-6.076 10.403-9.222 5.84-18.462 11.656-27.67 17.521-4.38 2.788-8.665 2.656-12.991-0.106-4.986-3.184-10.009-6.311-15.01-9.469-4.23-2.668-8.47-5.323-12.675-8.028-3.752-2.414-5.547-5.992-6.01-10.343-0.144-1.347 0.263-2.313 1.491-2.977 1.057-0.571 2.046-1.263 3.064-1.903 5.985-3.758 20.079-12.575 32.623-20.464 0 0-16.829 27.514-17.001 27.645" fill="#323e48"/>
   </g>
   <g transform="translate(316.6 204.4)">
    <path d="m0 0c2.688 0 4.779 0.489 6.271 1.471 1.493 0.982 2.24 2.569 2.24 4.763 0 1.264-0.241 2.321-0.721 3.168-0.481 0.847-1.121 1.564-1.917 2.145-0.795 0.582-1.709 1.079-2.738 1.492-1.029 0.411-2.107 0.849-3.235 1.312-1.427 0.559-2.705 1.136-3.832 1.73-1.128 0.593-2.091 1.264-2.887 2.011-0.795 0.746-1.401 1.6-1.816 2.563-0.415 0.962-0.623 2.09-0.623 3.385 0 2.952 0.979 5.192 2.937 6.72 1.957 1.525 4.678 2.289 8.164 2.289 0.927 0 1.84-0.067 2.736-0.199 0.896-0.134 1.733-0.307 2.514-0.524 0.778-0.216 1.492-0.456 2.139-0.722 0.648-0.266 1.187-0.546 1.618-0.844l-1.194-2.838c-0.963 0.663-2.134 1.193-3.51 1.592s-2.861 0.598-4.453 0.598c-1.096 0-2.1-0.108-3.012-0.324-0.914-0.216-1.701-0.564-2.365-1.045-0.664-0.482-1.187-1.088-1.566-1.816-0.383-0.731-0.574-1.612-0.574-2.638 0-1.062 0.199-1.958 0.597-2.687 0.399-0.732 0.954-1.362 1.667-1.893 0.714-0.531 1.552-1.013 2.516-1.442 0.961-0.433 2.006-0.88 3.135-1.346 1.36-0.563 2.644-1.127 3.856-1.691 1.212-0.566 2.266-1.228 3.161-1.992 0.896-0.763 1.61-1.691 2.142-2.787 0.529-1.094 0.795-2.437 0.795-4.032 0-3.118-1.088-5.458-3.261-7.017s-5.117-2.34-8.834-2.34c-1.328 0-2.538 0.084-3.634 0.249-1.094 0.168-2.073 0.374-2.936 0.623s-1.593 0.505-2.19 0.772c-0.597 0.265-1.062 0.497-1.394 0.696l1.096 2.937c0.332-0.199 0.779-0.432 1.343-0.696 0.563-0.266 1.227-0.524 1.991-0.773s1.626-0.456 2.588-0.623c0.963-0.166 2.024-0.247 3.186-0.247" fill="#ffffff"/>
   </g>
   <g transform="translate(350.44 207.19)">
    <path d="m0 0c-0.334 0.829-0.81 1.924-1.425 3.285-0.617 1.36-1.309 2.844-2.075 4.454-0.767 1.609-1.55 3.268-2.349 4.979-0.801 1.708-1.567 3.307-2.3 4.802-0.734 1.493-1.384 2.803-1.95 3.932-0.567 1.128-0.984 1.924-1.251 2.389-0.43-4.149-0.77-8.653-1.018-13.514-0.25-4.86-0.473-9.963-0.673-15.306h-3.334c0.298 6.272 0.637 12.279 1.021 18.018 0.38 5.741 0.853 11.232 1.417 16.475h2.986c0.998-1.66 2.061-3.576 3.191-5.748 1.131-2.174 2.254-4.43 3.366-6.769 1.115-2.34 2.195-4.646 3.243-6.919 1.047-2.272 1.97-4.323 2.768-6.147 0.798 1.824 1.72 3.875 2.768 6.147 1.048 2.273 2.128 4.579 3.241 6.919 1.113 2.339 2.236 4.595 3.368 6.769 1.129 2.172 2.192 4.088 3.191 5.748h2.836c0.564-5.243 1.038-10.734 1.419-16.475 0.381-5.739 0.721-11.746 1.02-18.018h-3.435c-0.199 5.343-0.421 10.446-0.671 15.306-0.249 4.861-0.59 9.365-1.02 13.514-0.266-0.465-0.681-1.261-1.245-2.389-0.565-1.129-1.212-2.439-1.94-3.932-0.731-1.495-1.494-3.094-2.29-4.802-0.796-1.711-1.576-3.37-2.34-4.979-0.764-1.61-1.451-3.094-2.065-4.454-0.614-1.361-1.088-2.456-1.418-3.285z" fill="#ffffff"/>
   </g>
   <g transform="translate(389.34 232.82)">
    <path d="m0 0c-1.25-2.863-2.464-5.772-3.648-8.723-1.183-2.948-2.406-6.13-3.672-9.544h14.723c-1.275 3.419-2.516 6.606-3.722 9.559-1.207 2.954-2.434 5.855-3.681 8.708m11.869-30.61c-0.658 1.695-1.264 3.323-1.816 4.888-0.553 1.564-1.081 3.086-1.585 4.569h-16.849c-0.577-1.49-1.141-3.017-1.691-4.581-0.55-1.566-1.133-3.191-1.748-4.876h-3.534c1.31 3.59 2.545 6.936 3.711 10.039 1.165 3.099 2.309 6.034 3.428 8.801s2.233 5.426 3.336 7.978c1.106 2.552 2.266 5.109 3.484 7.674h2.984c1.216-2.553 2.371-5.11 3.462-7.663 1.093-2.558 2.201-5.218 3.324-7.984 1.124-2.766 2.264-5.702 3.417-8.806 1.155-3.106 2.426-6.451 3.812-10.039z" fill="#ffffff"/>
   </g>
   <g transform="translate(418.93 234.07)">
    <path d="m0 0c-1.261 0-2.365-0.042-3.311-0.125-0.945-0.083-1.733-0.157-2.364-0.224v-14.682h4.679c1.559 0 3.037 0.075 4.43 0.224 1.394 0.15 2.605 0.48 3.632 0.994 1.03 0.515 1.843 1.253 2.44 2.215 0.596 0.962 0.895 2.273 0.895 3.933 0 1.525-0.299 2.787-0.895 3.782-0.597 0.996-1.378 1.783-2.34 2.364-0.962 0.582-2.065 0.98-3.309 1.195-1.245 0.216-2.53 0.324-3.857 0.324m13.935-7.715c0-2.588-0.68-4.629-2.039-6.122-1.361-1.493-3.154-2.572-5.376-3.235 0.53-0.664 1.219-1.56 2.065-2.688 0.847-1.128 1.716-2.365 2.614-3.708 0.895-1.344 1.774-2.747 2.636-4.206 0.864-1.46 1.594-2.853 2.191-4.18h-3.633c-0.696 1.327-1.452 2.653-2.265 3.981-0.813 1.327-1.642 2.612-2.489 3.858-0.846 1.244-1.667 2.397-2.463 3.458-0.798 1.062-1.494 1.992-2.091 2.787-1.062-0.098-2.124-0.148-3.185-0.148h-5.575v-13.936h-3.384v33.844c1.194 0.332 2.596 0.573 4.205 0.722s3.095 0.225 4.456 0.225c4.744 0 8.319-0.897 10.725-2.688 2.405-1.792 3.608-4.447 3.608-7.964" fill="#ffffff"/>
   </g>
   <g transform="translate(474.85 202.21)">
    <path d="m0 0v34.493h23.292v-6.52h-15.527v-6.77h13.786v-6.37h-13.786v-8.312h16.673v-6.521z" fill="#ffffff"/>
   </g>
   <g transform="translate(525.78 202.21)">
    <path d="m0 0c-0.973 1.922-2.035 3.868-3.19 5.839-1.155 1.97-2.481 3.637-3.978 4.997-0.465-0.513-1.052-1.226-1.764-2.139-0.712-0.914-1.424-1.884-2.136-2.91s-1.38-2.092-2.001-3.192c-0.619-1.103-1.082-1.967-1.385-2.595h-8.859c1.451 2.694 3.164 5.476 5.14 8.343 1.975 2.867 4.18 5.913 6.612 9.135l-11.254 17.015h9.407l6.572-9.987 6.716 9.987h8.86l-11.194-16.647c2.934-3.677 5.352-7.048 7.249-10.114 1.898-3.065 3.395-5.642 4.491-7.732z" fill="#ffffff"/>
   </g>
   <g transform="translate(468.2 227.49)">
    <path d="m0 0c-0.929 2.223-2.257 4.049-3.982 5.475-1.615 1.336-3.541 2.323-5.752 2.99v-7.88c0.144-0.127 0.294-0.249 0.426-0.386 1.792-1.858 2.689-4.596 2.689-8.212 0-3.452-0.94-6.157-2.814-8.113-1.875-1.959-4.753-2.937-8.634-2.937-0.664 0-1.238 8e-3 -1.717 0.024-0.424 0.016-0.794 0.038-1.127 0.065v-6.707c0.88-0.033 1.698-0.051 2.445-0.051 3.052 0 5.807 0.366 8.262 1.094 2.456 0.73 4.538 1.826 6.247 3.285s3.028 3.302 3.957 5.525 1.394 4.829 1.394 7.815c0 3.118-0.465 5.79-1.394 8.013" fill="#ffffff"/>
   </g>
   <g transform="translate(453.98 236.7)">
    <path d="m0 0h-14.599l-3e-3 -2.97v-31.921h3.424v31.921h11.178z" fill="#00ffb2"/>
   </g>
  </g>
 </g>
</svg>
