<?xml version="1.0" encoding="utf-8"?>
<!-- Generator: Adobe Illustrator 23.1.1, SVG Export Plug-In . SVG Version: 6.00 Build 0)  -->
<svg version="1.1" id="Layer_1" xmlns="http://www.w3.org/2000/svg" xmlns:xlink="http://www.w3.org/1999/xlink" x="0px" y="0px"
	 viewBox="0 0 650 215" style="enable-background:new 0 0 650 215;" xml:space="preserve">
<style type="text/css">
	.st0{fill:#FFFFFF;}
	.st1{fill:url(#SVGID_1_);}
</style>
<g>
	<path class="st0" d="M255.8,38.3c0-4.2,3.4-7.5,7.5-7.5h40.5c23.5,0,35.5,3.1,45.2,11c11,9,17.3,23.3,17.3,39
		c0,14.9-5.7,29-15.6,38.2c-9.7,9-22.2,12.7-42.8,12.7h-16.2v46.1h-29.5c-3.6,0-6.5-2.9-6.5-6.5v-133H255.8z M306.9,98.6
		c9,0,14-1.1,17.8-4.2c3.5-3.1,5.7-8.1,5.7-13.2c0-5.5-2.6-11.2-6.8-13.8c-3.5-2.4-9-3.5-18-3.5h-13.8v34.7
		C291.8,98.6,306.9,98.6,306.9,98.6z"/>
	<path class="st0" d="M387.1,30.8h20.6c3.5,0,6.3,2.8,6.3,6.3v134.4c0,3.5-2.8,6.3-6.3,6.3h-20.6c-3.5,0-6.3-2.8-6.3-6.3V37.1
		C380.8,33.6,383.6,30.8,387.1,30.8z"/>
	<path class="st0" d="M449.5,80.1c10.1-10.3,25.7-16.5,42.1-16.5c19.5,0,34.9,7,46.3,20.8c8.6,10.7,13.4,24.1,13.4,38
		c0,16-6.4,31.4-17.3,42.6c-10.7,11-25.2,16.5-42.6,16.5c-34.4,0-59.2-24.8-59.2-59.2C432.1,106.7,438.5,91.1,449.5,80.1z
		 M491.8,150.5c14.9,0,26.3-12.1,26.3-28.1c0-15.4-11.8-27.9-26.3-27.9c-14.7,0-26.5,12.3-26.5,27.6
		C465.3,138.5,476.7,150.5,491.8,150.5z"/>
	<path class="st0" d="M566,67.4h19.1c3.1,0,5.9,2,6.9,4.9l20.7,59.1l15.8-42.1c1.6-4.2,7.5-4.3,9.2-0.1l12.4,31.2l-34.5,89.5
		c-1.1,2.8-3.8,4.7-6.8,4.7h-19.2c-5.2,0-8.7-5.3-6.7-10.1l13.4-32.3l-37.1-94.8C557.2,72.6,560.8,67.4,566,67.4z"/>
</g>
<linearGradient id="SVGID_1_" gradientUnits="userSpaceOnUse" x1="199.7477" y1="-3.599" x2="-11.7498" y2="253.7393">
	<stop  offset="0" style="stop-color:#573CFF"/>
	<stop  offset="1" style="stop-color:#82ACFF"/>
</linearGradient>
<path class="st1" d="M189,214.6H28.2c-14.8,0-26.9-12-26.9-26.9V26.9C1.3,12,13.3,0,28.2,0H189c14.8,0,26.9,12,26.9,26.9v160.9
	C215.9,202.6,203.9,214.6,189,214.6z"/>
<g>
	<path class="st0" d="M93.2,44.3c1.7-4.4,6.6-6.5,11-4.8l31.4,12.3c19.2,7.5,28.1,13.9,33.5,23.4c6.1,10.9,6.7,24.6,1.7,37.5
		c-4.8,12.2-13.9,21.9-25,26.2c-10.8,4.3-22.2,3.3-39.1-3.3l-13.3-5.2l-3.2,8.3C83.8,155,65.5,163,49.2,156.7l0,0L93.2,44.3z
		 M116.4,108.3c7.4,2.9,11.8,3.6,15.9,2.3c3.9-1.4,7.3-4.8,8.9-8.9c1.8-4.5,1.4-10-1.1-13.5c-2.1-3.1-6.2-5.7-13.6-8.6l-11.3-4.4
		l-6.2,16C106.2,97.9,109.5,105.6,116.4,108.3L116.4,108.3z"/>
</g>
</svg>
